<svg width="46" height="45" viewBox="0 0 46 45" fill="none" xmlns="http://www.w3.org/2000/svg">
<g id="Group">
<g id="Group_2">
<path id="Vector" d="M35.0612 0.097168C35.3998 0.0972223 35.7283 0.212326 35.993 0.423605C36.2576 0.634884 36.4425 0.929801 36.5175 1.26L37.3443 4.89413C37.5316 5.71777 37.9479 6.47169 38.5452 7.06896C39.1424 7.66624 39.8964 8.08253 40.72 8.26985L44.3549 9.09661C44.6849 9.17182 44.9796 9.35687 45.1906 9.62146C45.4017 9.88605 45.5167 10.2145 45.5167 10.5529C45.5167 10.8914 45.4017 11.2198 45.1906 11.4844C44.9796 11.749 44.6849 11.9341 44.3549 12.0093L40.72 12.836C39.8964 13.0234 39.1424 13.4397 38.5452 14.0369C37.9479 14.6342 37.5316 15.3881 37.3443 16.2118L36.5175 19.8459C36.4423 20.1759 36.2573 20.4706 35.9927 20.6817C35.7281 20.8927 35.3997 21.0077 35.0612 21.0077C34.7227 21.0077 34.3943 20.8927 34.1297 20.6817C33.8651 20.4706 33.6801 20.1759 33.6048 19.8459L32.7781 16.2118C32.5908 15.3881 32.1745 14.6342 31.5772 14.0369C30.9799 13.4397 30.226 13.0234 29.4024 12.836L25.7675 12.0093C25.4375 11.9341 25.1428 11.749 24.9317 11.4844C24.7207 11.2198 24.6057 10.8914 24.6057 10.5529C24.6057 10.2145 24.7207 9.88605 24.9317 9.62146C25.1428 9.35687 25.4375 9.17182 25.7675 9.09661L29.4024 8.26985C30.226 8.08253 30.9799 7.66624 31.5772 7.06896C32.1745 6.47169 32.5908 5.71777 32.7781 4.89413L33.6048 1.26C33.6798 0.929801 33.8648 0.634884 34.1294 0.423605C34.394 0.212326 34.7226 0.0972223 35.0612 0.097168Z" fill="#CDFF09"/>
<path id="Vector_2" fill-rule="evenodd" clip-rule="evenodd" d="M35.0612 23.2492C36.0396 23.2492 36.9448 22.8698 37.6192 22.2358C37.9055 23.5501 38.0495 24.8914 38.0486 26.2366C38.0486 36.5482 29.6892 44.9076 19.3776 44.9076C9.06594 44.9076 0.706543 36.5482 0.706543 26.2366C0.706543 15.9249 9.06594 7.56555 19.3776 7.56555C20.751 7.56555 22.0894 7.71417 23.3784 7.99499C22.9279 8.4743 22.612 9.06412 22.4627 9.70476C22.3133 10.3454 22.3359 11.0141 22.528 11.6432C22.7202 12.2723 23.0751 12.8395 23.5569 13.2874C24.0387 13.7353 24.6302 14.048 25.2716 14.1938L28.9058 15.0205C29.3176 15.1142 29.6946 15.3223 29.9932 15.621C30.2918 15.9196 30.5 16.2966 30.5936 16.7084L31.4204 20.3433C31.6081 21.1685 32.0706 21.9056 32.7321 22.4336C33.3936 22.9615 34.2149 23.2491 35.0612 23.2492ZM10.4155 24.7429C10.0193 24.7429 9.63941 24.9003 9.35929 25.1804C9.07917 25.4605 8.9218 25.8404 8.9218 26.2366C8.9218 26.6327 9.07917 27.0127 9.35929 27.2928C9.63941 27.5729 10.0193 27.7303 10.4155 27.7303H17.8839V35.1987C17.8839 35.5948 18.0413 35.9748 18.3214 36.2549C18.6015 36.535 18.9814 36.6924 19.3776 36.6924C19.7737 36.6924 20.1537 36.535 20.4338 36.2549C20.7139 35.9748 20.8713 35.5948 20.8713 35.1987V27.7303H28.3397C28.7358 27.7303 29.1157 27.5729 29.3959 27.2928C29.676 27.0127 29.8334 26.6327 29.8334 26.2366C29.8334 25.8404 29.676 25.4605 29.3959 25.1804C29.1157 24.9003 28.7358 24.7429 28.3397 24.7429H20.8713V17.2745C20.8713 16.8783 20.7139 16.4984 20.4338 16.2183C20.1537 15.9382 19.7737 15.7808 19.3776 15.7808C18.9814 15.7808 18.6015 15.9382 18.3214 16.2183C18.0413 16.4984 17.8839 16.8783 17.8839 17.2745V24.7429H10.4155Z" fill="#CDFF09"/>
</g>
</g>
</svg>
