<svg width="47" height="47" viewBox="0 0 47 47" fill="none" xmlns="http://www.w3.org/2000/svg">
<g id="svgexport-20 (24) 1">
<g id="Group">
<path id="Vector" d="M44.3773 13.8758L33.6649 3.16337C32.9749 2.47337 31.8598 2.47337 31.1698 3.16337L26.6674 7.67277C27.0359 7.58774 27.4201 7.59816 27.7836 7.70305C28.147 7.80793 28.4777 8.00382 28.7443 8.27216C29.7201 9.24792 29.6086 10.8858 28.4167 11.7152C27.678 12.224 26.6604 12.2309 25.9216 11.7291C25.5427 11.4779 25.2491 11.1173 25.0798 10.6953C24.9105 10.2734 24.8735 9.80989 24.9737 9.3664L20.4713 13.8688C19.7813 14.5588 19.7813 15.674 20.4713 16.364L24.9737 20.8734C24.8134 20.1555 25.0086 19.3609 25.5731 18.7964C25.8076 18.5619 26.0912 18.3823 26.4035 18.2707C26.7157 18.159 27.0489 18.1181 27.3789 18.1507C27.7089 18.1834 28.0276 18.2889 28.3119 18.4596C28.5962 18.6303 28.8391 18.862 29.0231 19.1379C29.5249 19.8767 29.5249 20.8943 29.0231 21.6331C28.7718 22.0078 28.4129 22.2976 27.9936 22.4643C27.5743 22.6311 27.1143 22.6669 26.6743 22.567L31.1767 27.0694C31.8667 27.7594 32.9819 27.7594 33.6719 27.0694L38.1743 22.567C37.9722 23.4243 38.2928 24.3652 39.1222 24.9297C39.861 25.4316 40.8786 25.4246 41.6174 24.9158C41.8909 24.7304 42.1202 24.4869 42.2887 24.2027C42.4572 23.9184 42.5608 23.6004 42.5921 23.2714C42.6234 22.9425 42.5816 22.6106 42.4697 22.2997C42.3578 21.9888 42.1786 21.7064 41.9449 21.4728C41.6783 21.2044 41.3476 21.0085 40.9842 20.9037C40.6208 20.7988 40.2366 20.7883 39.868 20.8734L44.3704 16.3709C45.0674 15.6809 45.0673 14.5658 44.3773 13.8758ZM22.367 26.8673C23.2104 27.0625 24.1583 26.7488 24.7158 25.9334C25.2177 25.1946 25.2177 24.177 24.7158 23.4382C24.5324 23.1617 24.2897 22.9294 24.0053 22.7582C23.721 22.5871 23.4022 22.4813 23.0719 22.4486C22.7416 22.4159 22.4082 22.4571 22.0959 22.5692C21.7835 22.6813 21.5 22.8615 21.2658 23.0967C20.7013 23.6613 20.5061 24.4558 20.6664 25.1737L16.164 20.6713C15.474 19.9813 14.3589 19.9813 13.6689 20.6713L9.16644 25.1737C9.25147 24.8051 9.24105 24.4209 9.13616 24.0574C9.03128 23.694 8.83539 23.3633 8.56705 23.0967C8.33343 22.863 8.05105 22.6838 7.74011 22.5719C7.42917 22.4601 7.09735 22.4183 6.76838 22.4496C6.43941 22.4809 6.12142 22.5845 5.83716 22.753C5.55289 22.9215 5.30937 23.1507 5.12402 23.4243C4.61523 24.1631 4.60826 25.1806 5.11008 25.9194C5.66765 26.7419 6.61553 27.0625 7.47281 26.8673L2.97038 31.3767C2.28038 32.0667 2.28038 33.1819 2.97038 33.8719L13.6828 44.5843C14.3728 45.2743 15.488 45.2743 16.178 44.5843L20.6804 40.0819C20.4783 40.9391 20.7989 41.88 21.6283 42.4446C22.367 42.9464 23.3846 42.9394 24.1234 42.4306C24.397 42.2453 24.6262 42.0018 24.7947 41.7175C24.9632 41.4332 25.0668 41.1153 25.0981 40.7863C25.1294 40.4573 25.0876 40.1255 24.9758 39.8146C24.8639 39.5036 24.6847 39.2212 24.451 38.9876C24.1844 38.7193 23.8537 38.5234 23.4903 38.4185C23.1268 38.3136 22.7426 38.3032 22.374 38.3882L26.8764 33.8858C27.5664 33.1958 27.5664 32.0806 26.8764 31.3906L22.367 26.8673ZM34.4734 33.6906C34.4089 33.6261 34.3323 33.5749 34.248 33.54C34.1637 33.5051 34.0733 33.4871 33.982 33.4871C33.8908 33.4871 33.8004 33.5051 33.7161 33.54C33.6318 33.5749 33.5552 33.6261 33.4907 33.6906C33.4262 33.7552 33.375 33.8318 33.3401 33.9161C33.3051 34.0004 33.2872 34.0908 33.2872 34.182C33.2872 34.2733 33.3051 34.3636 33.3401 34.4479C33.375 34.5322 33.4262 34.6088 33.4907 34.6734L35.6443 36.827C35.7837 36.9664 35.958 37.0291 36.1392 37.0291C36.3204 37.0291 36.4946 36.9594 36.634 36.827C36.6986 36.7625 36.7499 36.6859 36.7849 36.6016C36.8198 36.5173 36.8378 36.4269 36.8378 36.3356C36.8378 36.2444 36.8198 36.154 36.7849 36.0697C36.7499 35.9854 36.6986 35.9088 36.634 35.8443L34.4734 33.6906ZM39.2755 32.3664L36.0625 31.7949C35.6861 31.7252 35.3237 31.9831 35.254 32.3594C35.1843 32.7358 35.4422 33.0982 35.8186 33.1679L39.0316 33.7394C39.0734 33.7464 39.1152 33.7534 39.157 33.7534C39.4916 33.7534 39.7843 33.5164 39.8401 33.1749C39.9028 32.7985 39.6519 32.4361 39.2755 32.3664ZM32.1595 35.454C31.7831 35.5237 31.5252 35.8861 31.5949 36.2625L32.1664 39.4755C32.2292 39.81 32.5219 40.054 32.8495 40.054C32.8913 40.054 32.9331 40.054 32.9749 40.04C33.3513 39.9703 33.6092 39.6079 33.5395 39.2316L32.968 36.0185C32.9052 35.6422 32.5428 35.3913 32.1595 35.454ZM12.8674 14.05C13.0067 14.1894 13.181 14.2522 13.3622 14.2522C13.5434 14.2522 13.7177 14.1825 13.857 14.05C13.9217 13.9856 13.9729 13.909 14.0079 13.8247C14.0429 13.7403 14.0609 13.65 14.0609 13.5587C14.0609 13.4674 14.0429 13.377 14.0079 13.2927C13.9729 13.2084 13.9217 13.1318 13.857 13.0673L11.7034 10.9137C11.6389 10.8492 11.5623 10.798 11.478 10.763C11.3937 10.7281 11.3033 10.7101 11.212 10.7101C11.1208 10.7101 11.0304 10.7281 10.9461 10.763C10.8618 10.798 10.7852 10.8492 10.7207 10.9137C10.6562 10.9782 10.605 11.0548 10.57 11.1391C10.5351 11.2234 10.5172 11.3138 10.5172 11.405C10.5172 11.4963 10.5351 11.5867 10.57 11.671C10.605 11.7553 10.6562 11.8319 10.7207 11.8964L12.8674 14.05ZM15.0558 12.2937C15.0977 12.2937 15.1395 12.2937 15.1813 12.2797C15.5577 12.21 15.8155 11.8476 15.7458 11.4713L15.1743 8.25822C15.1046 7.88186 14.7422 7.62398 14.3658 7.69368C13.9895 7.76337 13.7316 8.1258 13.8013 8.50216L14.3728 11.7152C14.4286 12.0567 14.7213 12.2937 15.0558 12.2937ZM8.06523 15.3743L11.2783 15.9458C11.3201 15.9528 11.3619 15.9597 11.4037 15.9597C11.7383 15.9597 12.031 15.7228 12.0867 15.3813C12.1564 15.0049 11.8986 14.6425 11.5222 14.5728L8.30917 14.0013C7.93281 13.9316 7.57038 14.1894 7.50068 14.5658C7.43796 14.9422 7.68887 15.3046 8.06523 15.3743Z" fill="#CDFF09"/>
</g>
</g>
</svg>
