<svg width="50" height="50" viewBox="0 0 50 50" fill="none" xmlns="http://www.w3.org/2000/svg">
<g id="svgexport-20 (25) 1">
<g id="Group">
<path id="Vector" d="M25.6818 13.8683C25.6818 15.3532 24.394 16.6153 22.8788 16.6153C21.3637 16.6153 20.0758 15.3532 20.0758 13.8683C20.0758 12.3835 21.2879 11.1213 22.8788 11.1213C24.4697 11.1213 25.6818 12.3092 25.6818 13.8683ZM42.5758 26.341C40 24.0395 36.6667 22.7774 33.1061 22.9259C29.6212 23.0744 26.3637 24.5592 23.9394 27.0835C21.5152 29.6819 20.303 33.1713 20.5303 36.6607L16.2121 38.3683C15.9849 38.4426 15.7576 38.6653 15.7576 38.9622C15.6818 39.185 15.8333 39.4819 16.0606 39.6304C18.4849 41.5607 20.9091 42.9713 23.4091 43.8622C23.7879 44.3819 24.3182 44.9016 24.7727 45.3471C27.197 47.5744 30.3788 48.7622 33.6364 48.7622H34.2424C37.7273 48.6138 40.9849 47.1289 43.4091 44.6047C48.3333 39.3335 47.9546 31.1668 42.5758 26.341ZM36.9697 42.7486C36.6667 43.1941 36.2879 43.6395 35.9091 44.085C35.8333 44.1592 35.7576 44.1592 35.7576 44.2335H35.6818C35.6061 44.2335 35.5303 44.3077 35.4546 44.3077C35.3788 44.3077 35.303 44.3077 35.2273 44.2335C35.1515 44.1592 35.1515 44.2335 35.1515 44.1592C35.0758 44.1592 35.0758 44.085 35 44.085C34.9243 44.085 34.9243 44.0107 34.9243 43.9365L34.8485 43.8622V43.2683C36.2879 39.8532 35.1515 35.9183 32.197 33.6168L31.2121 35.1016C31.0606 35.3244 30.8334 35.4729 30.6061 35.4729H30.4546C30.1515 35.3986 29.9243 35.1759 29.8485 34.8789L28.5606 29.2365C28.4849 28.8653 28.7121 28.4198 29.1667 28.3456L34.8485 27.0835C35.1515 27.0092 35.4546 27.1577 35.6061 27.3804C35.7576 27.6032 35.7576 27.9744 35.6061 28.1971L34.697 29.6077C38.7121 32.8001 39.7727 38.5168 36.9697 42.7486Z" fill="#CDFF09"/>
<path id="Vector_2" d="M26.8939 6.44403C24.7727 3.69706 21.7424 1.841 18.2576 1.39555C14.7727 0.950093 11.2879 1.76676 8.48486 3.7713C2.65152 8.00312 1.4394 16.0955 5.75759 21.8122C6.13637 22.3319 6.59092 22.8516 7.12122 23.2971C7.72728 25.8955 8.9394 28.3455 10.6061 30.944C10.7576 31.1668 10.9849 31.3152 11.2121 31.3152H11.2879C11.5909 31.3152 11.8182 31.1668 11.8939 30.944L14.0909 26.8607C14.8485 27.0092 15.6061 27.0834 16.2879 27.0834C19.0909 27.0834 21.8182 26.1925 24.1667 24.5592C29.9243 20.3274 31.2121 12.1607 26.8939 6.44403ZM23.2576 23.3713C20.5303 25.3016 17.1212 26.044 13.8636 25.3759H13.5606C13.4849 25.3759 13.4849 25.3758 13.4091 25.4501C13.3333 25.4501 13.3333 25.5243 13.2576 25.5243L13.1818 25.5986C13.1061 25.5986 13.1061 25.6728 13.0303 25.7471L11.2121 29.1622C9.92425 27.0834 9.01516 25.0046 8.56062 22.8516V22.7774C8.56062 22.7774 8.56062 22.7031 8.48486 22.7031C8.48486 22.6289 8.4091 22.6289 8.4091 22.5546L8.33334 22.4804C7.8788 22.0349 7.42425 21.5152 6.96971 20.9955C3.10607 15.9471 4.24243 8.74555 9.39395 4.95918C11.8939 3.10312 14.9243 2.3607 18.0303 2.80615C21.1364 3.25161 23.7879 4.88494 25.6818 7.33494C29.4697 12.3834 28.4091 19.5849 23.2576 23.3713Z" fill="#CDFF09"/>
<path id="Vector_3" d="M10.1515 16.6153C11.6996 16.6153 12.9545 15.3854 12.9545 13.8683C12.9545 12.3512 11.6996 11.1213 10.1515 11.1213C8.60344 11.1213 7.34848 12.3512 7.34848 13.8683C7.34848 15.3854 8.60344 16.6153 10.1515 16.6153Z" fill="#CDFF09"/>
<path id="Vector_4" d="M19.4697 13.8683C19.4697 15.3532 18.2576 16.6153 16.6667 16.6153C15.0758 16.6153 13.9394 15.3532 13.9394 13.8683C13.9394 12.3835 15.2273 11.1213 16.7424 11.1213C18.2576 11.1213 19.4697 12.3092 19.4697 13.8683Z" fill="#CDFF09"/>
</g>
</g>
</svg>
