<svg width="41" height="42" viewBox="0 0 41 42" fill="none" xmlns="http://www.w3.org/2000/svg">
<g id="Group 1000005111">
<path id="Vector 171" d="M20.4605 0.663208H4.49999C0.877993 1.04758 0.0479093 4.37552 0.0856175 5.99145C0.063037 10.8745 0.0314242 20.959 0.0856175 22.2326C0.153359 23.8245 -0.0173144 27.6685 3.93617 32.9312C8.9672 39.6624 17.0776 41.113 20.5039 40.997C23.9561 41.0579 31.6829 41.1431 34.9725 40.997C39.2808 40.4008 40.4216 36.8196 40.4535 35.1035C40.472 33.5077 40.4979 28.2614 40.4535 20.042C38.232 0.993212 22.5154 0.663208 20.4605 0.663208Z" fill="#CDFF09"/>
<path id="Vector 172" d="M13.2952 11.8004C7.71327 11.8004 6.2049 17.1972 6.14845 19.8955C6.09199 20.573 6.25006 22.3749 7.33392 24.1633C10.1452 28.9052 15.971 28.1261 18.1387 28.0245C19.8729 27.9432 20.4645 28.9616 20.5435 29.481C20.734 30.849 22.1475 31.6797 23.393 31.0826C28.3833 28.69 35.0735 24.1477 34.4305 18.981C33.6718 12.8843 28.7854 11.6537 26.437 11.8004H13.2952Z" fill="#09090F"/>
<circle id="Ellipse 1511" cx="13.3968" cy="19.8954" r="2.84513" fill="#CDFF09"/>
<circle id="Ellipse 1512" cx="27.0129" cy="19.8954" r="2.84513" fill="#CDFF09"/>
</g>
</svg>
