<svg xmlns="http://www.w3.org/2000/svg" width="25" height="24" viewBox="0 0 25 24" fill="none">
  <g clip-path="url(#clip0_5142_4112)">
    <path d="M12.1594 0C8.90292 0 8.49342 0.015 7.21392 0.072C5.93442 0.132 5.06292 0.333 4.29942 0.63C3.49856 0.931229 2.77316 1.40374 2.17392 2.0145C1.56354 2.61404 1.09108 3.33936 0.789424 4.14C0.492424 4.902 0.289924 5.775 0.231424 7.05C0.174424 8.3325 0.159424 8.7405 0.159424 12.0015C0.159424 15.2595 0.174424 15.6675 0.231424 16.947C0.291424 18.225 0.492424 19.0965 0.789424 19.86C1.09692 20.649 1.50642 21.318 2.17392 21.9855C2.83992 22.653 3.50892 23.064 4.29792 23.37C5.06292 23.667 5.93292 23.8695 7.21092 23.928C8.49192 23.985 8.89992 24 12.1594 24C15.4189 24 15.8254 23.985 17.1064 23.928C18.3829 23.868 19.2574 23.667 20.0209 23.37C20.8213 23.0686 21.5462 22.5961 22.1449 21.9855C22.8124 21.318 23.2219 20.649 23.5294 19.86C23.8249 19.0965 24.0274 18.225 24.0874 16.947C24.1444 15.6675 24.1594 15.2595 24.1594 12C24.1594 8.7405 24.1444 8.3325 24.0874 7.0515C24.0274 5.775 23.8249 4.902 23.5294 4.14C23.2278 3.33934 22.7553 2.61401 22.1449 2.0145C21.5459 1.40351 20.8204 0.930968 20.0194 0.63C19.2544 0.333 18.3814 0.1305 17.1049 0.072C15.8239 0.015 15.4174 0 12.1564 0H12.1609H12.1594ZM11.0839 2.163H12.1609C15.3649 2.163 15.7444 2.1735 17.0089 2.232C18.1789 2.2845 18.8149 2.481 19.2379 2.6445C19.7974 2.862 20.1979 3.123 20.6179 3.543C21.0379 3.963 21.2974 4.362 21.5149 4.923C21.6799 5.3445 21.8749 5.9805 21.9274 7.1505C21.9859 8.415 21.9979 8.7945 21.9979 11.997C21.9979 15.1995 21.9859 15.5805 21.9274 16.845C21.8749 18.015 21.6784 18.6495 21.5149 19.0725C21.3225 19.5935 21.0155 20.0647 20.6164 20.451C20.1964 20.871 19.7974 21.1305 19.2364 21.348C18.8164 21.513 18.1804 21.708 17.0089 21.762C15.7444 21.819 15.3649 21.8325 12.1609 21.8325C8.95692 21.8325 8.57592 21.819 7.31142 21.762C6.14142 21.708 5.50692 21.513 5.08392 21.348C4.56267 21.1559 4.09111 20.8494 3.70392 20.451C3.30455 20.0641 2.99701 19.5925 2.80392 19.071C2.64042 18.6495 2.44392 18.0135 2.39142 16.8435C2.33442 15.579 2.32242 15.1995 2.32242 11.994C2.32242 8.79 2.33442 8.412 2.39142 7.1475C2.44542 5.9775 2.64042 5.3415 2.80542 4.9185C3.02292 4.359 3.28392 3.9585 3.70392 3.5385C4.12392 3.1185 4.52292 2.859 5.08392 2.6415C5.50692 2.4765 6.14142 2.2815 7.31142 2.2275C8.41842 2.1765 8.84742 2.1615 11.0839 2.16V2.163ZM18.5659 4.155C18.3768 4.155 18.1896 4.19225 18.0149 4.26461C17.8402 4.33698 17.6814 4.44305 17.5477 4.57677C17.414 4.71048 17.3079 4.86923 17.2355 5.04394C17.1632 5.21864 17.1259 5.4059 17.1259 5.595C17.1259 5.7841 17.1632 5.97135 17.2355 6.14606C17.3079 6.32077 17.414 6.47952 17.5477 6.61323C17.6814 6.74695 17.8402 6.85302 18.0149 6.92539C18.1896 6.99775 18.3768 7.035 18.5659 7.035C18.9478 7.035 19.3141 6.88329 19.5842 6.61323C19.8542 6.34318 20.0059 5.97691 20.0059 5.595C20.0059 5.21309 19.8542 4.84682 19.5842 4.57677C19.3141 4.30671 18.9478 4.155 18.5659 4.155ZM12.1609 5.838C11.3435 5.82525 10.5318 5.97523 9.77289 6.27921C9.01402 6.58319 8.3232 7.03511 7.74065 7.60863C7.1581 8.18216 6.69547 8.86585 6.37969 9.61989C6.0639 10.3739 5.90127 11.1833 5.90127 12.0007C5.90127 12.8182 6.0639 13.6276 6.37969 14.3816C6.69547 15.1356 7.1581 15.8193 7.74065 16.3929C8.3232 16.9664 9.01402 17.4183 9.77289 17.7223C10.5318 18.0263 11.3435 18.1763 12.1609 18.1635C13.7787 18.1383 15.3217 17.4779 16.4569 16.3249C17.592 15.1719 18.2283 13.6188 18.2283 12.0007C18.2283 10.3827 17.592 8.82962 16.4569 7.67662C15.3217 6.52363 13.7787 5.86324 12.1609 5.838ZM12.1609 7.9995C13.2219 7.9995 14.2395 8.42098 14.9897 9.17122C15.7399 9.92146 16.1614 10.939 16.1614 12C16.1614 13.061 15.7399 14.0785 14.9897 14.8288C14.2395 15.579 13.2219 16.0005 12.1609 16.0005C11.0999 16.0005 10.0824 15.579 9.33214 14.8288C8.5819 14.0785 8.16042 13.061 8.16042 12C8.16042 10.939 8.5819 9.92146 9.33214 9.17122C10.0824 8.42098 11.0999 7.9995 12.1609 7.9995Z" fill="white"/>
  </g>
  <defs>
    <clipPath id="clip0_5142_4112">
      <rect width="24" height="24" fill="white" transform="translate(0.159424)"/>
    </clipPath>
  </defs>
</svg>