<svg width="38" height="38" viewBox="0 0 38 38" fill="none" xmlns="http://www.w3.org/2000/svg">
<g filter="url(#filter0_d_1_56)">
<circle cx="19" cy="15" r="15" fill="#5D3464"/>
</g>
<g clip-path="url(#clip0_1_56)">
<path d="M21.001 14.55C21.918 13.613 23.112 13 24.501 13C25.9597 13 27.3586 13.5795 28.3901 14.6109C29.4215 15.6424 30.001 17.0413 30.001 18.5V26H28.001V18.5C28.001 17.5717 27.6322 16.6815 26.9759 16.0251C26.3195 15.3687 25.4292 15 24.501 15C23.5727 15 22.6825 15.3687 22.0261 16.0251C21.3697 16.6815 21.001 17.5717 21.001 18.5V26H19.001V13.5H21.001V14.55ZM14.001 11.5C13.6032 11.5 13.2216 11.342 12.9403 11.0607C12.659 10.7794 12.501 10.3978 12.501 10C12.501 9.60218 12.659 9.22064 12.9403 8.93934C13.2216 8.65804 13.6032 8.5 14.001 8.5C14.3988 8.5 14.7803 8.65804 15.0616 8.93934C15.3429 9.22064 15.501 9.60218 15.501 10C15.501 10.3978 15.3429 10.7794 15.0616 11.0607C14.7803 11.342 14.3988 11.5 14.001 11.5ZM13.001 13.5H15.001V26H13.001V13.5Z" fill="black"/>
<path fill-rule="evenodd" clip-rule="evenodd" d="M16.8575 12.4742H19.9525V14.0158C20.3984 13.1292 21.5417 12.3325 23.2592 12.3325C26.5517 12.3325 27.3334 14.0975 27.3334 17.3358V23.3333H24V18.0733C24 16.2292 23.5542 15.1892 22.4192 15.1892C20.845 15.1892 20.1909 16.31 20.1909 18.0725V23.3333H16.8575V12.4742ZM11.1417 23.1917H14.475V12.3325H11.1417V23.1917ZM14.9525 8.79167C14.9526 9.07107 14.8972 9.3477 14.7895 9.60549C14.6818 9.86329 14.5239 10.0971 14.325 10.2933C13.922 10.6939 13.3765 10.918 12.8084 10.9167C12.2412 10.9163 11.6969 10.6927 11.2934 10.2942C11.0952 10.0973 10.9378 9.86319 10.8303 9.60536C10.7228 9.34754 10.6672 9.07103 10.6667 8.79167C10.6667 8.22751 10.8917 7.68751 11.2942 7.28917C11.6974 6.89014 12.2419 6.66642 12.8092 6.66667C13.3775 6.66667 13.9225 6.89084 14.325 7.28917C14.7267 7.68751 14.9525 8.22751 14.9525 8.79167Z" fill="white"/>
</g>
<defs>
<filter id="filter0_d_1_56" x="0" y="0" width="38" height="38" filterUnits="userSpaceOnUse" color-interpolation-filters="sRGB">
<feFlood flood-opacity="0" result="BackgroundImageFix"/>
<feColorMatrix in="SourceAlpha" type="matrix" values="0 0 0 0 0 0 0 0 0 0 0 0 0 0 0 0 0 0 127 0" result="hardAlpha"/>
<feOffset dy="4"/>
<feGaussianBlur stdDeviation="2"/>
<feComposite in2="hardAlpha" operator="out"/>
<feColorMatrix type="matrix" values="0 0 0 0 0 0 0 0 0 0 0 0 0 0 0 0 0 0 0.25 0"/>
<feBlend mode="normal" in2="BackgroundImageFix" result="effect1_dropShadow_1_56"/>
<feBlend mode="normal" in="SourceGraphic" in2="effect1_dropShadow_1_56" result="shape"/>
</filter>
<clipPath id="clip0_1_56">
<rect width="20" height="20" fill="white" transform="translate(9 5)"/>
</clipPath>
</defs>
</svg>
