<svg xmlns="http://www.w3.org/2000/svg" width="25" height="24" viewBox="0 0 25 24" fill="none">
  <g clip-path="url(#clip0_5142_4111)">
    <path d="M7.69842 22.4999C16.7554 22.4999 21.7099 14.9954 21.7099 8.49894C21.7099 8.28894 21.7099 8.07594 21.7009 7.86594C22.6655 7.16767 23.498 6.30317 24.1594 5.31294C23.2584 5.71022 22.3036 5.97205 21.3259 6.08994C22.3557 5.4744 23.127 4.50589 23.4964 3.36444C22.5289 3.93763 21.4699 4.34 20.3659 4.55394C19.6237 3.76348 18.6415 3.23982 17.5716 3.06408C16.5016 2.88834 15.4035 3.07032 14.4474 3.58185C13.4914 4.09337 12.7306 4.90588 12.2831 5.89353C11.8356 6.88118 11.7262 7.98884 11.9719 9.04494C10.014 8.94677 8.09865 8.43814 6.34999 7.55206C4.60133 6.66597 3.05845 5.42221 1.82142 3.90144C1.19343 4.98607 1.00178 6.26904 1.28539 7.48984C1.569 8.71064 2.30661 9.77774 3.34842 10.4744C2.56773 10.4479 1.80421 10.2383 1.11942 9.86244V9.92994C1.12077 11.0662 1.51438 12.1671 2.23373 13.0466C2.95308 13.9261 3.95405 14.5303 5.06742 14.7569C4.64482 14.8734 4.20827 14.9314 3.76992 14.9294C3.4609 14.9304 3.15249 14.9017 2.84892 14.8439C3.1636 15.822 3.77633 16.6772 4.60129 17.2897C5.42625 17.9021 6.42213 18.2412 7.44942 18.2594C5.70426 19.6301 3.54853 20.3736 1.32942 20.3699C0.938405 20.3716 0.547659 20.349 0.159424 20.3024C2.4117 21.7383 5.02737 22.5008 7.69842 22.4999Z" fill="white"/>
  </g>
  <defs>
    <clipPath id="clip0_5142_4111">
      <rect width="24" height="24" fill="white" transform="translate(0.159424)"/>
    </clipPath>
  </defs>
</svg>