<svg width="38" height="38" viewBox="0 0 38 38" fill="none" xmlns="http://www.w3.org/2000/svg">
<g filter="url(#filter0_d_1_50)">
<circle cx="19" cy="15" r="15" fill="#5D3464"/>
</g>
<path d="M18.9991 11.1475C17.9772 11.1475 16.9971 11.5535 16.2744 12.2761C15.5518 12.9988 15.1458 13.9789 15.1458 15.0008C15.1458 16.0228 15.5518 17.0029 16.2744 17.7256C16.9971 18.4482 17.9772 18.8542 18.9991 18.8542C20.0211 18.8542 21.0012 18.4482 21.7239 17.7256C22.4465 17.0029 22.8525 16.0228 22.8525 15.0008C22.8525 13.9789 22.4465 12.9988 21.7239 12.2761C21.0012 11.5535 20.0211 11.1475 18.9991 11.1475ZM18.9991 17.5033C18.3352 17.5033 17.6985 17.2396 17.229 16.7701C16.7596 16.3007 16.4958 15.6639 16.4958 15C16.4958 14.3361 16.7596 13.6993 17.229 13.2299C17.6985 12.7604 18.3352 12.4967 18.9991 12.4967C19.6631 12.4967 20.2998 12.7604 20.7693 13.2299C21.2387 13.6993 21.5025 14.3361 21.5025 15C21.5025 15.6639 21.2387 16.3007 20.7693 16.7701C20.2998 17.2396 19.6631 17.5033 18.9991 17.5033Z" fill="white"/>
<path d="M23.005 11.9042C23.5012 11.9042 23.9034 11.502 23.9034 11.0058C23.9034 10.5097 23.5012 10.1075 23.005 10.1075C22.5089 10.1075 22.1067 10.5097 22.1067 11.0058C22.1067 11.502 22.5089 11.9042 23.005 11.9042Z" fill="white"/>
<path d="M26.1108 10.0925C25.9179 9.59432 25.6231 9.1419 25.2453 8.76421C24.8674 8.38653 24.4149 8.09189 23.9166 7.89917C23.3336 7.6803 22.7176 7.56195 22.095 7.54917C21.2925 7.51417 21.0383 7.50417 19.0033 7.50417C16.9683 7.50417 16.7075 7.50417 15.9116 7.54917C15.2895 7.5613 14.6739 7.67967 14.0916 7.89917C13.5933 8.09167 13.1406 8.38622 12.7628 8.76394C12.3849 9.14165 12.0902 9.59419 11.8975 10.0925C11.6786 10.6755 11.5605 11.2915 11.5483 11.9142C11.5125 12.7158 11.5016 12.97 11.5016 15.0058C11.5016 17.0408 11.5016 17.3 11.5483 18.0975C11.5608 18.7208 11.6783 19.3358 11.8975 19.92C12.0907 20.4181 12.3857 20.8705 12.7637 21.2481C13.1416 21.6258 13.5942 21.9205 14.0925 22.1133C14.6737 22.341 15.2895 22.4678 15.9133 22.4883C16.7158 22.5233 16.97 22.5342 19.005 22.5342C21.04 22.5342 21.3008 22.5342 22.0966 22.4883C22.7192 22.4757 23.3352 22.3576 23.9183 22.1392C24.4164 21.946 24.8688 21.6511 25.2466 21.2733C25.6244 20.8955 25.9193 20.4431 26.1125 19.945C26.3316 19.3617 26.4491 18.7467 26.4616 18.1233C26.4975 17.3217 26.5083 17.0675 26.5083 15.0317C26.5083 12.9958 26.5083 12.7375 26.4616 11.94C26.4519 11.3086 26.3333 10.6835 26.1108 10.0925ZM25.0958 18.0358C25.0904 18.5161 25.0028 18.9919 24.8366 19.4425C24.7115 19.7666 24.5199 20.0608 24.2742 20.3064C24.0285 20.552 23.7341 20.7434 23.41 20.8683C22.9643 21.0337 22.4936 21.1214 22.0183 21.1275C21.2266 21.1642 21.0033 21.1733 18.9733 21.1733C16.9416 21.1733 16.7341 21.1733 15.9275 21.1275C15.4524 21.1217 14.9819 21.034 14.5366 20.8683C14.2114 20.7442 13.9158 20.5531 13.6691 20.3075C13.4223 20.0619 13.2298 19.7672 13.1041 19.4425C12.9404 18.9967 12.8527 18.5265 12.845 18.0517C12.8091 17.26 12.8008 17.0367 12.8008 15.0067C12.8008 12.9758 12.8008 12.7683 12.845 11.9608C12.8504 11.4809 12.938 11.0053 13.1041 10.555C13.3583 9.8975 13.8791 9.38 14.5366 9.12833C14.9821 8.96345 15.4525 8.8758 15.9275 8.86917C16.72 8.83333 16.9425 8.82333 18.9733 8.82333C21.0041 8.82333 21.2125 8.82333 22.0183 8.86917C22.4937 8.87488 22.9644 8.96256 23.41 9.12833C23.7341 9.25356 24.0284 9.44517 24.2741 9.69086C24.5198 9.93655 24.7114 10.2309 24.8366 10.555C25.0004 11.0008 25.0881 11.471 25.0958 11.9458C25.1316 12.7383 25.1408 12.9608 25.1408 14.9917C25.1408 17.0217 25.1408 17.24 25.105 18.0367H25.0958V18.0358Z" fill="white"/>
<defs>
<filter id="filter0_d_1_50" x="0" y="0" width="38" height="38" filterUnits="userSpaceOnUse" color-interpolation-filters="sRGB">
<feFlood flood-opacity="0" result="BackgroundImageFix"/>
<feColorMatrix in="SourceAlpha" type="matrix" values="0 0 0 0 0 0 0 0 0 0 0 0 0 0 0 0 0 0 127 0" result="hardAlpha"/>
<feOffset dy="4"/>
<feGaussianBlur stdDeviation="2"/>
<feComposite in2="hardAlpha" operator="out"/>
<feColorMatrix type="matrix" values="0 0 0 0 0 0 0 0 0 0 0 0 0 0 0 0 0 0 0.25 0"/>
<feBlend mode="normal" in2="BackgroundImageFix" result="effect1_dropShadow_1_50"/>
<feBlend mode="normal" in="SourceGraphic" in2="effect1_dropShadow_1_50" result="shape"/>
</filter>
</defs>
</svg>
