<svg xmlns="http://www.w3.org/2000/svg" width="25" height="24" viewBox="0 0 25 24" fill="none">
  <g clip-path="url(#clip0_5142_4110)">
    <path d="M24.1594 12.0735C24.1594 5.40454 18.7864 -0.00146484 12.1594 -0.00146484C5.52937 3.51563e-05 0.156372 5.40454 0.156372 12.075C0.156372 18.1005 4.54537 23.0955 10.2814 24.0015V15.564H7.23637V12.075H10.2844V9.41253C10.2844 6.38704 12.0769 4.71603 14.8174 4.71603C16.1314 4.71603 17.5039 4.95154 17.5039 4.95154V7.92154H15.9904C14.5009 7.92154 14.0359 8.85303 14.0359 9.80853V12.0735H17.3629L16.8319 15.5625H14.0344V24C19.7704 23.094 24.1594 18.099 24.1594 12.0735Z" fill="white"/>
  </g>
  <defs>
    <clipPath id="clip0_5142_4110">
      <rect width="24" height="24" fill="white" transform="translate(0.159424)"/>
    </clipPath>
  </defs>
</svg>