<svg width="1440" height="646" viewBox="0 0 1440 646" fill="none" xmlns="http://www.w3.org/2000/svg">
<path opacity="0.8" d="M1534.43 645.074V612.821M1534.43 612.821H1573.2M1534.43 612.821V580.567M1534.43 612.821H1495.65M1573.2 612.821V645.074M1573.2 612.821V580.567M1534.43 580.567H1573.2M1534.43 580.567V548.313M1534.43 580.567H1495.65M1495.65 612.821V645.074M1495.65 612.821V580.567M1495.65 612.821H1456.87M1573.2 580.567V548.313M1573.2 548.313H1534.43M1573.2 548.313V516.059M1534.43 548.313V516.059M1534.43 548.313H1495.65M1495.65 580.567V548.313M1495.65 580.567H1456.87M1456.87 612.821V645.074M1456.87 612.821V580.567M1456.87 612.821H1418.1M1534.43 516.059H1573.2M1534.43 516.059V483.806M1534.43 516.059H1495.65M1495.65 548.313V516.059M1495.65 548.313H1456.87M1456.87 580.567V548.313M1456.87 580.567H1418.1M1418.1 612.821V645.074M1418.1 612.821V580.567M1418.1 612.821H1379.32M1573.2 516.059V483.806M1534.43 483.806H1573.2M1534.43 483.806V451.552M1534.43 483.806H1495.65M1495.65 516.059V483.806M1495.65 516.059H1456.87M1456.87 548.313V516.059M1456.87 548.313H1418.1M1418.1 580.567V548.313M1418.1 580.567H1379.32M1573.2 483.806V451.552M1534.43 451.552H1573.2M1534.43 451.552V419.298M1534.43 451.552H1495.65M1495.65 483.806V451.552M1495.65 483.806H1456.87M1456.87 516.059V483.806M1456.87 516.059H1418.1M1418.1 548.313V516.059M1418.1 548.313H1379.32M1573.2 451.552V419.298M1534.43 419.298H1573.2M1534.43 419.298V387.045M1534.43 419.298H1495.65M1495.65 451.552V419.298M1495.65 451.552H1456.87M1456.87 483.806V451.552M1456.87 483.806H1418.1M1418.1 516.059V483.806M1418.1 516.059H1379.32M1573.2 419.298V387.045M1534.43 387.045H1573.2M1534.43 387.045V354.791M1534.43 387.045H1495.65M1495.65 419.298V387.045M1495.65 419.298H1456.87M1456.87 451.552V419.298M1456.87 451.552H1418.1M1418.1 483.806V451.552M1418.1 483.806H1379.32M1573.2 387.045V354.791M1534.43 354.791H1573.2M1534.43 354.791V322.538M1534.43 354.791H1495.65M1495.65 387.045V354.791M1495.65 387.045H1456.87M1456.87 419.298V387.045M1456.87 419.298H1418.1M1418.1 451.552V419.298M1418.1 451.552H1379.32M1573.2 354.791V322.538M1534.43 322.538H1573.2M1534.43 322.538V290.283M1534.43 322.538H1495.65M1495.65 354.791V322.538M1495.65 354.791H1456.87M1456.87 387.045V354.791M1456.87 387.045H1418.1M1418.1 419.298V387.045M1418.1 419.298H1379.32M1573.2 322.538V290.283M1534.43 290.283H1573.2M1534.43 290.283V258.03M1534.43 290.283H1495.65M1495.65 322.538V290.283M1495.65 322.538H1456.87M1456.87 354.791V322.538M1456.87 354.791H1418.1M1418.1 387.045V354.791M1418.1 387.045H1379.32M1573.2 290.283V258.03M1534.43 258.03H1573.2M1534.43 258.03V225.776M1534.43 258.03H1495.65M1495.65 290.283V258.03M1495.65 290.283H1456.87M1456.87 322.538V290.283M1456.87 322.538H1418.1M1418.1 354.791V322.538M1418.1 354.791H1379.32M1573.2 258.03V225.776M1534.43 225.776H1573.2M1534.43 225.776V193.523M1534.43 225.776H1495.65M1495.65 258.03V225.776M1495.65 258.03H1456.87M1456.87 290.283V258.03M1456.87 290.283H1418.1M1418.1 322.538V290.283M1418.1 322.538H1379.32M1573.2 225.776V193.523M1534.43 193.523H1573.2M1534.43 193.523V161.269M1534.43 193.523H1495.65M1495.65 225.776V193.523M1495.65 225.776H1456.87M1456.87 258.03V225.776M1456.87 258.03H1418.1M1418.1 290.283V258.03M1418.1 290.283H1379.32M1573.2 193.523V161.269M1534.43 161.269H1573.2M1534.43 161.269V129.015M1534.43 161.269H1495.65M1495.65 193.523V161.269M1495.65 193.523H1456.87M1456.87 225.776V193.523M1456.87 225.776H1418.1M1418.1 258.03V225.776M1418.1 258.03H1379.32M1573.2 161.269V129.015M1534.43 129.015H1573.2M1534.43 129.015V96.7618M1534.43 129.015H1495.65M1495.65 161.269V129.015M1495.65 161.269H1456.87M1456.87 193.523V161.269M1456.87 193.523H1418.1M1418.1 225.776V193.523M1418.1 225.776H1379.32M1573.2 129.015V96.7618M1534.43 96.7618H1573.2M1534.43 96.7618V64.5075M1534.43 96.7618H1495.65M1495.65 129.015V96.7618M1495.65 129.015H1456.87M1456.87 161.269V129.015M1456.87 161.269H1418.1M1418.1 193.523V161.269M1418.1 193.523H1379.32M1573.2 96.7618V64.5075M1534.43 64.5075H1573.2M1534.43 64.5075V32.2542M1534.43 64.5075H1495.65M1495.65 96.7618V64.5075M1495.65 96.7618H1456.87M1456.87 129.015V96.7618M1456.87 129.015H1418.1M1418.1 161.269V129.015M1418.1 161.269H1379.32M1573.2 64.5075V32.2542M1534.43 32.2542H1573.2M1534.43 32.2542V4.64738e-06M1534.43 32.2542H1495.65M1495.65 64.5075V32.2542M1495.65 64.5075H1456.87M1456.87 96.7618V64.5075M1456.87 96.7618H1418.1M1418.1 129.015V96.7618M1418.1 129.015H1379.32M1573.2 32.2542V4.64738e-06H1534.43M1534.43 4.64738e-06H1495.65M1495.65 32.2542V4.64738e-06M1495.65 32.2542H1456.87M1456.87 64.5075V32.2542M1456.87 64.5075H1418.1M1418.1 96.7618V64.5075M1418.1 96.7618H1379.32M1495.65 4.64738e-06H1456.87M1456.87 32.2542V4.64738e-06M1456.87 32.2542H1418.1M1418.1 64.5075V32.2542M1418.1 64.5075H1379.32M1456.87 4.64738e-06H1418.1M1418.1 32.2542V4.64738e-06M1418.1 32.2542H1379.32M1418.1 4.64738e-06H1379.32M1379.32 612.821V645.074M1379.32 612.821V580.567M1379.32 612.821H1340.54M1379.32 580.567V548.313M1379.32 580.567H1340.54M1379.32 548.313V516.059M1379.32 548.313H1340.54M1379.32 516.059V483.806M1379.32 516.059H1340.54M1379.32 483.806V451.552M1379.32 483.806H1340.54M1379.32 451.552V419.298M1379.32 451.552H1340.54M1379.32 419.298V387.045M1379.32 419.298H1340.54M1379.32 387.045V354.791M1379.32 387.045H1340.54M1379.32 354.791V322.538M1379.32 354.791H1340.54M1379.32 322.538V290.283M1379.32 322.538H1340.54M1379.32 290.283V258.03M1379.32 290.283H1340.54M1379.32 258.03V225.776M1379.32 258.03H1340.54M1379.32 225.776V193.523M1379.32 225.776H1340.54M1379.32 193.523V161.269M1379.32 193.523H1340.54M1379.32 161.269V129.015M1379.32 161.269H1340.54M1379.32 129.015V96.7618M1379.32 129.015H1340.54M1379.32 96.7618V64.5075M1379.32 96.7618H1340.54M1379.32 64.5075V32.2542M1379.32 64.5075H1340.54M1379.32 32.2542V4.64738e-06M1379.32 32.2542H1340.54M1379.32 4.64738e-06H1340.54M1340.54 612.821V645.074M1340.54 612.821V580.567M1340.54 612.821H1301.77M1340.54 580.567V548.313M1340.54 580.567H1301.77M1340.54 548.313V516.059M1340.54 548.313H1301.77M1340.54 516.059V483.806M1340.54 516.059H1301.77M1340.54 483.806V451.552M1340.54 483.806H1301.77M1340.54 451.552V419.298M1340.54 451.552H1301.77M1340.54 419.298V387.045M1340.54 419.298H1301.77M1340.54 387.045V354.791M1340.54 387.045H1301.77M1340.54 354.791V322.538M1340.54 354.791H1301.77M1340.54 322.538V290.283M1340.54 322.538H1301.77M1340.54 290.283V258.03M1340.54 290.283H1301.77M1340.54 258.03V225.776M1340.54 258.03H1301.77M1340.54 225.776V193.523M1340.54 225.776H1301.77M1340.54 193.523V161.269M1340.54 193.523H1301.77M1340.54 161.269V129.015M1340.54 161.269H1301.77M1340.54 129.015V96.7618M1340.54 129.015H1301.77M1340.54 96.7618V64.5075M1340.54 96.7618H1301.77M1340.54 64.5075V32.2542M1340.54 64.5075H1301.77M1340.54 32.2542V4.64738e-06M1340.54 32.2542H1301.77M1340.54 4.64738e-06H1301.77M1301.77 612.821V645.074M1301.77 612.821V580.567M1301.77 612.821H1262.99M1301.77 580.567V548.313M1301.77 580.567H1262.99M1301.77 548.313V516.059M1301.77 548.313H1262.99M1301.77 516.059V483.806M1301.77 516.059H1262.99M1301.77 483.806V451.552M1301.77 483.806H1262.99M1301.77 451.552V419.298M1301.77 451.552H1262.99M1301.77 419.298H1262.99M1301.77 419.298V387.045M1301.77 387.045V354.791M1301.77 387.045H1262.99M1301.77 354.791V322.538M1301.77 354.791H1262.99M1301.77 322.538V290.283M1301.77 322.538H1262.99M1301.77 290.283V258.03M1301.77 290.283H1262.99M1301.77 258.03V225.776M1301.77 258.03H1262.99M1301.77 225.776V193.523M1301.77 225.776H1262.99M1301.77 193.523V161.269M1301.77 193.523H1262.99M1301.77 161.269V129.015M1301.77 161.269H1262.99M1301.77 129.015V96.7618M1301.77 129.015H1262.99M1301.77 96.7618V64.5075M1301.77 96.7618H1262.99M1301.77 64.5075V32.2542M1301.77 64.5075H1262.99M1301.77 32.2542V4.64738e-06M1301.77 32.2542H1262.99M1301.77 4.64738e-06H1262.99M1262.99 612.821V645.074M1262.99 612.821V580.567M1262.99 612.821H1224.21M1262.99 580.567V548.313M1262.99 580.567H1224.21M1262.99 548.313V516.059M1262.99 548.313H1224.21M1262.99 516.059V483.806M1262.99 516.059H1224.21M1262.99 483.806V451.552M1262.99 483.806H1224.21M1262.99 451.552V419.298M1262.99 451.552H1224.21M1262.99 419.298V387.045M1262.99 419.298H1224.21M1262.99 387.045V354.791M1262.99 387.045H1224.21M1262.99 354.791V322.538M1262.99 354.791H1224.21M1262.99 322.538V290.283M1262.99 322.538H1224.21M1262.99 290.283V258.03M1262.99 290.283H1224.21M1262.99 258.03V225.776M1262.99 258.03H1224.21M1262.99 225.776V193.523M1262.99 225.776C1262.99 225.776 1239.36 225.776 1224.21 225.776M1262.99 193.523V161.269M1262.99 193.523H1224.21M1262.99 161.269V129.015M1262.99 161.269H1224.21M1262.99 129.015V96.7618M1262.99 129.015H1224.21M1262.99 96.7618V64.5075M1262.99 96.7618H1224.21M1262.99 64.5075V32.2542M1262.99 64.5075H1224.21M1262.99 32.2542V4.64738e-06M1262.99 32.2542H1224.21M1262.99 4.64738e-06H1224.21M1224.21 612.821V645.074M1224.21 612.821V580.567M1224.21 612.821H1185.44M1224.21 580.567V548.313M1224.21 580.567H1185.44M1224.21 548.313V516.059M1224.21 548.313H1185.44M1224.21 516.059V483.806M1224.21 516.059H1185.44M1224.21 483.806V451.552M1224.21 483.806H1185.44M1224.21 451.552V419.298M1224.21 451.552H1185.44M1224.21 419.298V387.045M1224.21 419.298H1185.44M1224.21 387.045V354.791M1224.21 387.045H1185.44M1224.21 354.791V322.538M1224.21 354.791H1185.44M1224.21 322.538V290.283M1224.21 322.538H1185.44M1224.21 290.283V258.03M1224.21 290.283H1185.44M1224.21 258.03C1224.21 258.03 1224.21 238.372 1224.21 225.776M1224.21 258.03H1185.44M1224.21 225.776C1224.21 213.181 1224.21 193.523 1224.21 193.523M1224.21 225.776C1209.07 225.776 1185.44 225.776 1185.44 225.776M1224.21 193.523V161.269M1224.21 193.523H1185.44M1224.21 161.269V129.015M1224.21 161.269H1185.44M1224.21 129.015V96.7618M1224.21 129.015H1185.44M1224.21 96.7618V64.5075M1224.21 96.7618H1185.44M1224.21 64.5075V32.2542M1224.21 64.5075H1185.44M1224.21 32.2542V4.64738e-06M1224.21 32.2542H1185.44M1224.21 4.64738e-06H1185.44M1185.44 612.821V645.074M1185.44 612.821V580.567M1185.44 612.821H1146.66M1185.44 580.567V548.313M1185.44 580.567H1146.66M1185.44 548.313V516.059M1185.44 548.313H1146.66M1185.44 516.059V483.806M1185.44 516.059H1146.66M1185.44 483.806V451.552M1185.44 483.806H1146.66M1185.44 451.552V419.298M1185.44 451.552H1146.66M1185.44 419.298V387.045M1185.44 419.298H1146.66M1185.44 387.045V354.791M1185.44 387.045H1146.66M1185.44 354.791V322.538M1185.44 354.791H1146.66M1185.44 322.538V290.283M1185.44 322.538H1146.66M1185.44 290.283V258.03M1185.44 290.283H1146.66M1185.44 258.03V225.776M1185.44 258.03H1146.66M1185.44 225.776V193.523M1185.44 225.776H1146.66M1185.44 193.523V161.269M1185.44 193.523H1146.66M1185.44 161.269V129.015M1185.44 161.269H1146.66M1185.44 129.015V96.7618M1185.44 129.015H1146.66M1185.44 96.7618V64.5075M1185.44 96.7618H1146.66M1185.44 64.5075V32.2542M1185.44 64.5075H1146.66M1185.44 32.2542V4.64738e-06M1185.44 32.2542H1146.66M1185.44 4.64738e-06H1146.66M1146.66 612.821V645.074M1146.66 612.821V580.567M1146.66 612.821H1107.88M1146.66 580.567V548.313M1146.66 580.567H1107.88M1146.66 548.313V516.059M1146.66 548.313H1107.88M1146.66 516.059V483.806M1146.66 516.059H293.569M1146.66 483.806V451.552M1146.66 483.806H293.569M1146.66 451.552V419.298M1146.66 451.552H1107.88M1146.66 419.298V387.045M1146.66 419.298H1107.88M1146.66 387.045V354.791M1146.66 387.045H1107.88M1146.66 354.791V322.538M1146.66 354.791H1107.88M1146.66 322.538V290.283M1146.66 322.538H1107.88M1146.66 290.283V258.03M1146.66 290.283H1107.88M1146.66 258.03V225.776M1146.66 258.03H1107.88M1146.66 225.776V193.523M1146.66 225.776H1107.88M1146.66 193.523V161.269M1146.66 193.523H1107.88M1146.66 161.269V129.015M1146.66 161.269H1107.88M1146.66 129.015V96.7618M1146.66 129.015H1107.88M1146.66 96.7618V64.5075M1146.66 96.7618H1107.88M1146.66 64.5075V32.2542M1146.66 64.5075H1107.88M1146.66 32.2542V4.64738e-06M1146.66 32.2542H1107.88M1146.66 4.64738e-06H1107.88M1107.88 612.821V645.074M1107.88 612.821V580.567M1107.88 612.821H1069.1M1107.88 580.567V548.313M1107.88 580.567H1069.1M1107.88 548.313H1069.1M1107.88 548.313V451.552M293.569 516.059V548.313M293.569 516.059V483.806M293.569 516.059H254.795M293.569 483.806V451.552M293.569 483.806H254.795M1107.88 451.552V419.298M1107.88 451.552H1069.1M1107.88 419.298V387.045M1107.88 419.298H1069.1M1107.88 387.045V354.791M1107.88 387.045H1069.1M1107.88 354.791V322.538M1107.88 354.791H1069.1M1107.88 322.538V290.283M1107.88 322.538H1069.1M1107.88 290.283V258.03M1107.88 290.283H1069.1M1107.88 258.03V225.776M1107.88 258.03H1069.1M1107.88 225.776V193.523M1107.88 225.776H1069.1M1107.88 193.523V161.269M1107.88 193.523H1069.1M1107.88 161.269V129.015M1107.88 161.269H1069.1M1107.88 129.015V96.7618M1107.88 129.015H1069.1M1107.88 96.7618V64.5075M1107.88 96.7618H1069.1M1107.88 64.5075V32.2542M1107.88 64.5075H1069.1M1107.88 32.2542V4.64738e-06M1107.88 32.2542H1069.1M1107.88 4.64738e-06H1069.1M1069.1 612.821V645.074M1069.1 612.821V580.567M1069.1 612.821H1030.33M1069.1 580.567V548.313M1069.1 580.567H1030.33M1069.1 548.313H1030.33M1069.1 548.313V451.552M293.569 548.313H332.343M293.569 548.313V580.567M293.569 548.313H254.795M254.795 516.059V548.313M254.795 516.059V483.806M254.795 516.059H216.009M293.569 451.552H332.343M293.569 451.552V419.298M293.569 451.552H254.795M254.795 483.806V451.552M254.795 483.806H216.009M1069.1 451.552V419.298M1069.1 451.552H1030.33M1069.1 419.298V387.045M1069.1 419.298H1030.33M1069.1 387.045V354.791M1069.1 387.045H1030.33M1069.1 354.791V322.538M1069.1 354.791H1030.33M1069.1 322.538V290.283M1069.1 322.538H1030.33M1069.1 290.283V258.03M1069.1 290.283H1030.33M1069.1 258.03V225.776M1069.1 258.03H1030.33M1069.1 225.776V193.523M1069.1 225.776H1030.33M1069.1 193.523V161.269M1069.1 193.523H1030.33M1069.1 161.269V129.015M1069.1 161.269H1030.33M1069.1 129.015V96.7618M1069.1 129.015H1030.33M1069.1 96.7618V64.5075M1069.1 96.7618H1030.33M1069.1 64.5075V32.2542M1069.1 64.5075H1030.33M1069.1 32.2542V4.64738e-06M1069.1 32.2542H1030.33M1069.1 4.64738e-06H1030.33M1030.33 612.821V645.074M1030.33 612.821V580.567M1030.33 612.821H991.552M1030.33 580.567V548.313M1030.33 580.567H991.552M1030.33 548.313H991.552M1030.33 548.313V451.552M332.343 548.313H371.117M332.343 548.313V580.567M332.343 548.313V451.552M293.569 580.567H332.343M293.569 580.567V612.821M293.569 580.567H254.795M254.795 548.313V580.567M254.795 548.313H216.009M216.009 516.059V548.313M216.009 516.059V483.806M216.009 516.059H177.235M332.343 451.552H371.117M332.343 451.552V419.298M293.569 419.298H332.343M293.569 419.298V387.045M293.569 419.298H254.795M254.795 451.552V419.298M254.795 451.552H216.009M216.009 483.806V451.552M216.009 483.806H177.235M1030.33 451.552V419.298M1030.33 451.552H409.899M1030.33 419.298V387.045M1030.33 419.298H409.899M1030.33 387.045V354.791M1030.33 387.045H991.552M1030.33 354.791V322.538M1030.33 354.791H991.552M1030.33 322.538V290.283M1030.33 322.538H991.552M1030.33 290.283V258.03M1030.33 290.283H991.552M1030.33 258.03V225.776M1030.33 258.03H991.552M1030.33 225.776V193.523M1030.33 225.776H991.552M1030.33 193.523V161.269M1030.33 193.523H991.552M1030.33 161.269V129.015M1030.33 161.269H991.552M1030.33 129.015V96.7618M1030.33 129.015H991.552M1030.33 96.7618V64.5075M1030.33 96.7618H991.552M1030.33 64.5075V32.2542M1030.33 64.5075H991.552M1030.33 32.2542V4.64738e-06M1030.33 32.2542H991.552M1030.33 4.64738e-06H991.552M991.552 612.821V645.074M991.552 612.821V580.567M991.552 612.821H952.775M991.552 580.567V548.313M991.552 580.567H952.775M991.552 548.313H952.775M991.552 548.313V387.045M409.899 451.552V548.313M409.899 451.552V419.298M409.899 451.552H371.117M409.899 419.298V387.045M409.899 419.298H371.117M991.552 387.045V354.791M991.552 387.045H952.775M991.552 354.791V322.538M991.552 354.791H952.775M991.552 322.538V290.283M991.552 322.538H952.775M991.552 290.283V258.03M991.552 290.283H952.775M991.552 258.03V225.776M991.552 258.03H952.775M991.552 225.776V193.523M991.552 225.776H952.775M991.552 193.523V161.269M991.552 193.523H952.775M991.552 161.269V129.015M991.552 161.269H952.775M991.552 129.015V96.7618M991.552 129.015H952.775M991.552 96.7618V64.5075M991.552 96.7618H952.775M991.552 64.5075V32.2542M991.552 64.5075H952.775M991.552 32.2542V4.64738e-06M991.552 32.2542H952.775M991.552 4.64738e-06H952.775M952.775 612.821V645.074M952.775 612.821V580.567M952.775 612.821H913.998M952.775 580.567V548.313M952.775 580.567H913.998M952.775 548.313H913.998M952.775 548.313V387.045M409.899 548.313H448.675M409.899 548.313V580.567M409.899 548.313H371.117M371.117 451.552V548.313M371.117 451.552V419.298M409.899 387.045H448.675M409.899 387.045V354.791M409.899 387.045H371.117M371.117 419.298V387.045M371.117 419.298H332.343M952.775 387.045V354.791M952.775 387.045H913.998M952.775 354.791V322.538M952.775 354.791H913.998M952.775 322.538V290.283M952.775 322.538H913.998M952.775 290.283V258.03M952.775 290.283H913.998M952.775 258.03V225.776M952.775 258.03H913.998M952.775 225.776V193.523M952.775 225.776H913.998M952.775 193.523V161.269M952.775 193.523H913.998M952.775 161.269V129.015M952.775 161.269H913.998M952.775 129.015V96.7618M952.775 129.015H913.998M952.775 96.7618V64.5075M952.775 96.7618H913.998M952.775 64.5075V32.2542M952.775 64.5075H913.998M952.775 32.2542V4.64738e-06M952.775 32.2542H913.998M952.775 4.64738e-06H913.998M913.998 612.821V645.074M913.998 612.821V580.567M913.998 612.821H875.221M913.998 580.567V548.313M913.998 580.567H875.221M913.998 548.313H875.221M913.998 548.313V387.045M448.675 548.313H487.453M448.675 548.313V580.567M448.675 548.313V387.045M409.899 580.567H448.675M409.899 580.567V612.821M409.899 580.567H371.117M371.117 548.313V580.567M448.675 387.045H487.453M448.675 387.045V354.791M409.899 354.791H448.675M409.899 354.791V322.538M409.899 354.791H371.117M371.117 387.045V354.791M371.117 387.045H332.343M332.343 419.298V387.045M913.998 387.045V354.791M913.998 387.045H875.221M913.998 354.791V322.538M913.998 354.791H875.221M913.998 322.538V290.283M913.998 322.538H875.221M913.998 290.283V258.03M913.998 290.283H875.221M913.998 258.03V225.776M913.998 258.03H875.221M913.998 225.776V193.523M913.998 225.776H875.221M913.998 193.523V161.269M913.998 193.523H875.221M913.998 161.269V129.015M913.998 161.269H875.221M913.998 129.015V96.7618M913.998 129.015H875.221M913.998 96.7618V64.5075M913.998 96.7618H875.221M913.998 64.5075V32.2542M913.998 64.5075H875.221M913.998 32.2542V4.64738e-06M913.998 32.2542H875.221M913.998 4.64738e-06H875.221M875.221 612.821V645.074M875.221 612.821V580.567M875.221 612.821H836.444M875.221 580.567V548.313M875.221 580.567H836.444M875.221 548.313H836.444M875.221 548.313V387.045M875.221 387.045V354.791M875.221 387.045H836.444M875.221 354.791V322.538M875.221 354.791H836.444M875.221 322.538V290.283M875.221 322.538H836.444M875.221 290.283V258.03M875.221 290.283H836.444M875.221 258.03V225.776M875.221 258.03H836.444M875.221 225.776V193.523M875.221 225.776H836.444M875.221 193.523V161.269M875.221 193.523H836.444M875.221 161.269V129.015M875.221 161.269H836.444M875.221 129.015V96.7618M875.221 129.015H836.444M875.221 96.7618V64.5075M875.221 96.7618H836.444M875.221 64.5075V32.2542M875.221 64.5075H836.444M875.221 32.2542V4.64738e-06M875.221 32.2542H836.444M875.221 4.64738e-06H836.444M836.444 612.821V645.074M836.444 612.821V580.567M836.444 612.821H797.667M836.444 580.567V548.313M836.444 580.567H797.667M836.444 548.313H797.667M836.444 548.313V387.045M836.444 387.045V354.791M836.444 387.045H797.667M836.444 354.791V322.538M836.444 354.791H797.667M836.444 322.538V290.283M836.444 322.538H797.667M836.444 290.283V258.03M836.444 290.283H797.667M836.444 258.03V225.776M836.444 258.03H797.667M836.444 225.776V193.523M836.444 225.776H797.667M836.444 193.523V161.269M836.444 193.523H797.667M836.444 161.269V129.015M836.444 161.269H797.667M836.444 129.015V96.7618M836.444 129.015H797.667M836.444 96.7618V64.5075M836.444 96.7618H797.667M836.444 64.5075V32.2542M836.444 64.5075H797.667M836.444 32.2542V4.64738e-06M836.444 32.2542H797.667M836.444 4.64738e-06H797.667M797.667 612.821V645.074M797.667 612.821V580.567M797.667 612.821H758.891M797.667 580.567V548.313M797.667 580.567H758.891M797.667 548.313H758.891M797.667 548.313V387.045M797.667 387.045V354.791M797.667 387.045H758.891M797.667 354.791V322.538M797.667 354.791H758.891M797.667 322.538V290.283M797.667 322.538H758.891M797.667 290.283V258.03M797.667 290.283H758.891M797.667 258.03V225.776M797.667 258.03H758.891M797.667 225.776V193.523M797.667 225.776H758.891M797.667 193.523V161.269M797.667 193.523H758.891M797.667 161.269V129.015M797.667 161.269H758.891M797.667 129.015V96.7618M797.667 129.015H758.891M797.667 96.7618V64.5075M797.667 96.7618H758.891M797.667 64.5075V32.2542M797.667 64.5075H758.891M797.667 32.2542V4.64738e-06M797.667 32.2542H758.891M797.667 4.64738e-06H758.891M758.891 612.821V645.074M758.891 612.821H720.113M758.891 612.821V580.567M758.891 580.567V548.313M758.891 580.567H720.113M758.891 548.313H720.113M758.891 548.313V387.045M758.891 387.045V354.791M758.891 387.045H720.113M758.891 354.791V322.538M758.891 354.791H720.113M758.891 322.538V290.283M758.891 322.538H720.113M758.891 290.283V258.03M758.891 290.283H720.113M758.891 258.03V225.776M758.891 258.03H720.113M758.891 225.776V193.523M758.891 225.776H720.113M758.891 193.523V161.269M758.891 193.523H720.113M758.891 161.269V129.015M758.891 161.269H720.113M758.891 129.015V96.7618M758.891 129.015H720.113M758.891 96.7618V64.5075M758.891 96.7618H720.113M758.891 64.5075V32.2542M758.891 64.5075H720.113M758.891 32.2542V4.64738e-06M758.891 32.2542H720.113M758.891 4.64738e-06H720.113M720.113 612.821V645.074M720.113 612.821H681.337M720.113 612.821V580.567M720.113 580.567V548.313M720.113 580.567H681.337M720.113 548.313H681.337M720.113 548.313V387.045M720.113 387.045V354.791M720.113 387.045H681.337M720.113 354.791V322.538M720.113 354.791H681.337M720.113 322.538V290.283M720.113 322.538H681.337M720.113 290.283V258.03M720.113 290.283H681.337M720.113 258.03V225.776M720.113 258.03H681.337M720.113 225.776V193.523M720.113 225.776H681.337M720.113 193.523V161.269M720.113 193.523H681.337M720.113 161.269V129.015M720.113 161.269H681.337M720.113 129.015V96.7618M720.113 129.015H681.337M720.113 96.7618V64.5075M720.113 96.7618H681.337M720.113 64.5075V32.2542M720.113 64.5075H681.337M720.113 32.2542V4.64738e-06M720.113 32.2542H681.337M720.113 4.64738e-06H681.337M681.337 612.821V645.074M681.337 612.821H642.56M681.337 612.821V580.567M681.337 580.567V548.313M681.337 580.567H642.56M681.337 548.313H642.56M681.337 548.313V387.045M681.337 387.045V354.791M681.337 387.045H642.56M681.337 354.791V322.538M681.337 354.791H642.56M681.337 322.538V290.283M681.337 322.538H642.56M681.337 290.283V258.03M681.337 290.283H642.56M681.337 258.03V225.776M681.337 258.03H642.56M681.337 225.776V193.523M681.337 225.776H642.56M681.337 193.523V161.269M681.337 193.523H642.56M681.337 161.269V129.015M681.337 161.269H642.56M681.337 129.015V96.7618M681.337 129.015H642.56M681.337 96.7618V64.5075M681.337 96.7618H642.56M681.337 64.5075V32.2542M681.337 64.5075H642.56M681.337 32.2542V4.64738e-06M681.337 32.2542H642.56M681.337 4.64738e-06H642.56M642.56 612.821V645.074M642.56 612.821H603.783M642.56 612.821V580.567M642.56 580.567V548.313M642.56 580.567H603.783M642.56 548.313H603.783M642.56 548.313V387.045M642.56 387.045V354.791M642.56 387.045H603.783M642.56 354.791V322.538M642.56 354.791H603.783M642.56 322.538V290.283M642.56 322.538H603.783M642.56 290.283V258.03M642.56 290.283H603.783M642.56 258.03V225.776M642.56 258.03H603.783M642.56 225.776V193.523M642.56 225.776H603.783M642.56 193.523V161.269M642.56 193.523H603.783M642.56 161.269V129.015M642.56 161.269H603.783M642.56 129.015V96.7618M642.56 129.015H603.783M642.56 96.7618V64.5075M642.56 96.7618H603.783M642.56 64.5075V32.2542M642.56 64.5075H603.783M642.56 32.2542V4.64738e-06M642.56 32.2542H603.783M642.56 4.64738e-06H603.783M603.783 612.821V645.074M603.783 612.821V580.567M603.783 612.821H565.007M603.783 580.567V548.313M603.783 580.567H565.007M603.783 548.313H565.007M603.783 548.313V387.045M603.783 387.045V354.791M603.783 387.045H565.007M603.783 354.791V322.538M603.783 354.791H565.007M603.783 322.538V290.283M603.783 322.538H565.007M603.783 290.283V258.03M603.783 290.283H565.007M603.783 258.03V225.776M603.783 258.03H565.007M603.783 225.776V193.523M603.783 225.776H565.007M603.783 193.523V161.269M603.783 193.523H565.007M603.783 161.269V129.015M603.783 161.269H565.007M603.783 129.015V96.7618M603.783 129.015H565.007M603.783 96.7618V64.5075M603.783 96.7618H565.007M603.783 64.5075V32.2542M603.783 64.5075H565.007M603.783 32.2542V4.64738e-06M603.783 32.2542H565.007M603.783 4.64738e-06H565.007M565.007 612.821V645.074M565.007 612.821V580.567M565.007 612.821H526.229M565.007 580.567V548.313M565.007 580.567H526.229M565.007 548.313H526.229M565.007 548.313V387.045M565.007 387.045V354.791M565.007 387.045H526.229M565.007 354.791V322.538M565.007 354.791H526.229M565.007 322.538V290.283M565.007 322.538H526.229M565.007 290.283V258.03M565.007 290.283H526.229M565.007 258.03V225.776M565.007 258.03H526.229M565.007 225.776V193.523M565.007 225.776H526.229M565.007 193.523V161.269M565.007 193.523H526.229M565.007 161.269V129.015M565.007 161.269H526.229M565.007 129.015V96.7618M565.007 129.015H526.229M565.007 96.7618V64.5075M565.007 96.7618H526.229M565.007 64.5075V32.2542M565.007 64.5075H526.229M565.007 32.2542V4.64738e-06M565.007 32.2542H526.229M565.007 4.64738e-06H526.229M526.229 612.821V645.074M526.229 612.821V580.567M526.229 612.821H487.453M526.229 580.567V548.313M526.229 580.567H487.453M526.229 548.313H487.453M526.229 548.313V387.045M526.229 387.045V354.791M526.229 387.045H487.453M526.229 354.791V322.538M526.229 354.791H487.453M526.229 322.538V290.283M526.229 322.538H487.453M526.229 290.283V258.03M526.229 290.283H487.453M526.229 258.03V225.776M526.229 258.03H487.453M526.229 225.776V193.523M526.229 225.776H487.453M526.229 193.523V161.269M526.229 193.523H487.453M526.229 161.269V129.015M526.229 161.269H487.453M526.229 129.015V96.7618M526.229 129.015H487.453M526.229 96.7618V64.5075M526.229 96.7618H487.453M526.229 64.5075V32.2542M526.229 64.5075H487.453M526.229 32.2542V4.64738e-06M526.229 32.2542H487.453M526.229 4.64738e-06H487.453M487.453 612.821V645.074M487.453 612.821V580.567M487.453 612.821H448.675M487.453 580.567V548.313M487.453 580.567H448.675M487.453 548.313V387.045M487.453 387.045V354.791M487.453 354.791V322.538M487.453 354.791H448.675M487.453 322.538V290.283M487.453 322.538H448.675M487.453 290.283V258.03M487.453 290.283H448.675M487.453 258.03V225.776M487.453 258.03H448.675M487.453 225.776V193.523M487.453 225.776H448.675M487.453 193.523V161.269M487.453 193.523H448.675M487.453 161.269V129.015M487.453 161.269H448.675M487.453 129.015V96.7618M487.453 129.015H448.675M487.453 96.7618V64.5075M487.453 96.7618H448.675M487.453 64.5075V32.2542M487.453 64.5075H448.675M487.453 32.2542V4.64738e-06M487.453 32.2542H448.675M487.453 4.64738e-06H448.675M448.675 612.821V645.074M448.675 612.821V580.567M448.675 612.821H409.899M448.675 354.791V322.538M448.675 322.538V290.283M448.675 322.538H409.899M448.675 290.283V258.03M448.675 290.283H409.899M448.675 258.03V225.776M448.675 258.03H409.899M448.675 225.776V193.523M448.675 225.776H409.899M448.675 193.523V161.269M448.675 193.523H409.899M448.675 161.269V129.015M448.675 161.269H409.899M448.675 129.015V96.7618M448.675 129.015H409.899M448.675 96.7618V64.5075M448.675 96.7618H409.899M448.675 64.5075V32.2542M448.675 64.5075H409.899M448.675 32.2542V4.64738e-06M448.675 32.2542H409.899M448.675 4.64738e-06H409.899M409.899 612.821V645.074M409.899 612.821H371.117M409.899 322.538V290.283M409.899 322.538H371.117M409.899 290.283V258.03M409.899 290.283H371.117M409.899 258.03V225.776M409.899 258.03H371.117M409.899 225.776V193.523M409.899 225.776H371.117M409.899 193.523V161.269M409.899 193.523H371.117M409.899 161.269V129.015M409.899 161.269H371.117M409.899 129.015V96.7618M409.899 129.015H371.117M409.899 96.7618V64.5075M409.899 96.7618H371.117M409.899 64.5075V32.2542M409.899 64.5075H371.117M409.899 32.2542V4.64738e-06M409.899 32.2542H371.117M409.899 4.64738e-06H371.117M371.117 612.821V645.074M371.117 612.821V580.567M371.117 612.821H332.343M371.117 580.567H332.343M371.117 354.791V322.538M371.117 354.791H332.343M371.117 322.538V290.283M371.117 322.538H332.343M371.117 290.283V258.03M371.117 290.283H332.343M371.117 258.03V225.776M371.117 258.03H332.343M371.117 225.776V193.523M371.117 225.776H332.343M371.117 193.523V161.269M371.117 193.523H332.343M371.117 161.269V129.015M371.117 161.269H332.343M371.117 129.015V96.7618M371.117 129.015H332.343M371.117 96.7618V64.5075M371.117 96.7618H332.343M371.117 64.5075V32.2542M371.117 64.5075H332.343M371.117 32.2542V4.64738e-06M371.117 32.2542H332.343M371.117 4.64738e-06H332.343M332.343 612.821V645.074M332.343 612.821V580.567M332.343 612.821H293.569M332.343 387.045V354.791M332.343 387.045H293.569M332.343 354.791V322.538M332.343 354.791H293.569M332.343 322.538V290.283M332.343 322.538H293.569M332.343 290.283V258.03M332.343 290.283H293.569M332.343 258.03V225.776M332.343 258.03H293.569M332.343 225.776V193.523M332.343 225.776H293.569M332.343 193.523V161.269M332.343 193.523H293.569M332.343 161.269V129.015M332.343 161.269H293.569M332.343 129.015V96.7618M332.343 129.015H293.569M332.343 96.7618V64.5075M332.343 96.7618H293.569M332.343 64.5075V32.2542M332.343 64.5075H293.569M332.343 32.2542V4.64738e-06M332.343 32.2542H293.569M332.343 4.64738e-06H293.569M293.569 612.821V645.074M293.569 612.821H254.795M293.569 387.045V354.791M293.569 387.045H254.795M293.569 354.791V322.538M293.569 354.791H254.795M293.569 322.538V290.283M293.569 322.538H254.795M293.569 290.283V258.03M293.569 290.283H254.795M293.569 258.03V225.776M293.569 258.03H254.795M293.569 225.776V193.523M293.569 225.776H254.795M293.569 193.523V161.269M293.569 193.523H254.795M293.569 161.269V129.015M293.569 161.269H254.795M293.569 129.015V96.7618M293.569 129.015H254.795M293.569 96.7618V64.5075M293.569 96.7618H254.795M293.569 64.5075V32.2542M293.569 64.5075H254.795M293.569 32.2542V4.64738e-06M293.569 32.2542H254.795M293.569 4.64738e-06H254.795M254.795 612.821V645.074M254.795 612.821V580.567M254.795 612.821H216.009M254.795 580.567H216.009M254.795 419.298V387.045M254.795 419.298H216.009M254.795 387.045V354.791M254.795 387.045H216.009M254.795 354.791V322.538M254.795 354.791H216.009M254.795 322.538V290.283M254.795 322.538H216.009M254.795 290.283V258.03M254.795 290.283H216.009M254.795 258.03V225.776M254.795 258.03H216.009M254.795 225.776V193.523M254.795 225.776H216.009M254.795 193.523V161.269M254.795 193.523H216.009M254.795 161.269V129.015M254.795 161.269H216.009M254.795 129.015V96.7618M254.795 129.015H216.009M254.795 96.7618V64.5075M254.795 96.7618H216.009M254.795 64.5075V32.2542M254.795 64.5075H216.009M254.795 32.2542V4.64738e-06M254.795 32.2542H216.009M254.795 4.64738e-06H216.009M216.009 612.821V645.074M216.009 612.821V580.567M216.009 612.821H177.235M216.009 580.567V548.313M216.009 580.567H177.235M216.009 548.313H177.235M216.009 451.552V419.298M216.009 451.552H177.235M216.009 419.298V387.045M216.009 419.298H177.235M216.009 387.045V354.791M216.009 387.045H177.235M216.009 354.791V322.538M216.009 354.791H177.235M216.009 322.538V290.283M216.009 322.538H177.235M216.009 290.283V258.03M216.009 290.283H177.235M216.009 258.03V225.776M216.009 258.03H177.235M216.009 225.776V193.523M216.009 225.776H177.235M216.009 193.523V161.269M216.009 193.523H177.235M216.009 161.269V129.015M216.009 161.269H177.235M216.009 129.015V96.7618M216.009 129.015H177.235M216.009 96.7618V64.5075M216.009 96.7618H177.235M216.009 64.5075V32.2542M216.009 64.5075H177.235M216.009 32.2542V4.64738e-06M216.009 32.2542H177.235M216.009 4.64738e-06H177.235M177.235 612.821V645.074M177.235 612.821V580.567M177.235 612.821H138.461M177.235 580.567V548.313M177.235 580.567H138.461M177.235 548.313V516.059M177.235 548.313H138.461M177.235 516.059V483.806M177.235 516.059H138.461M177.235 483.806V451.552M177.235 483.806H138.461M177.235 451.552V419.298M177.235 451.552H138.461M177.235 419.298V387.045M177.235 419.298H138.461M177.235 387.045V354.791M177.235 387.045H138.461M177.235 354.791V322.538M177.235 354.791H138.461M177.235 322.538V290.283M177.235 322.538H138.461M177.235 290.283V258.03M177.235 290.283H138.461M177.235 258.03V225.776M177.235 258.03H138.461M177.235 225.776V193.523M177.235 225.776H138.461M177.235 193.523V161.269M177.235 193.523H138.461M177.235 161.269V129.015M177.235 161.269H138.461M177.235 129.015V96.7618M177.235 129.015H138.461M177.235 96.7618V64.5075M177.235 96.7618H138.461M177.235 64.5075V32.2542M177.235 64.5075H138.461M177.235 32.2542V4.64738e-06M177.235 32.2542H138.461M177.235 4.64738e-06H138.461M138.461 612.821V645.074M138.461 612.821V580.567M138.461 612.821H99.687M138.461 580.567V548.313M138.461 580.567H99.687M138.461 548.313V516.059M138.461 548.313H99.687M138.461 516.059V483.806M138.461 516.059H99.687M138.461 483.806V451.552M138.461 483.806H99.687M138.461 451.552V419.298M138.461 451.552H99.687M138.461 419.298H99.687M138.461 419.298V387.045M138.461 387.045V354.791M138.461 387.045H99.687M138.461 354.791V322.538M138.461 354.791H99.687M138.461 322.538V290.283M138.461 322.538H99.687M138.461 290.283V258.03M138.461 290.283H99.687M138.461 258.03V225.776M138.461 258.03H99.687M138.461 225.776V193.523M138.461 225.776H99.687M138.461 193.523V161.269M138.461 193.523H99.687M138.461 161.269V129.015M138.461 161.269H99.687M138.461 129.015V96.7618M138.461 129.015H99.687M138.461 96.7618V64.5075M138.461 96.7618H99.687M138.461 64.5075V32.2542M138.461 64.5075H99.687M138.461 32.2542V4.64738e-06M138.461 32.2542H99.687M138.461 4.64738e-06H99.687M99.687 612.821V645.074M99.687 612.821V580.567M99.687 612.821H60.9131M99.687 580.567V548.313M99.687 580.567H60.9131M99.687 548.313V516.059M99.687 548.313H60.9131M99.687 516.059V483.806M99.687 516.059H60.9131M99.687 483.806V451.552M99.687 483.806H60.9131M99.687 451.552V419.298M99.687 451.552H60.9131M99.687 419.298V387.045M99.687 419.298H60.9131M99.687 387.045V354.791M99.687 387.045H60.9131M99.687 354.791V322.538M99.687 354.791H60.9131M99.687 322.538V290.283M99.687 322.538H60.9131M99.687 290.283V258.03M99.687 290.283H60.9131M99.687 258.03V225.776M99.687 258.03H60.9131M99.687 225.776V193.523M99.687 225.776H60.9131M99.687 193.523V161.269M99.687 193.523H60.9131M99.687 161.269V129.015M99.687 161.269H60.9131M99.687 129.015V96.7618M99.687 129.015H60.9131M99.687 96.7618V64.5075M99.687 96.7618H60.9131M99.687 64.5075V32.2542M99.687 64.5075H60.9131M99.687 32.2542V4.64738e-06M99.687 32.2542H60.9131M99.687 4.64738e-06H60.9131M60.9131 612.821V645.074M60.9131 612.821V580.567M60.9131 612.821H22.1272M60.9131 580.567V548.313M60.9131 580.567H22.1272M60.9131 548.313V516.059M60.9131 548.313H22.1272M60.9131 516.059V483.806M60.9131 516.059H22.1272M60.9131 483.806V451.552M60.9131 483.806H22.1272M60.9131 451.552V419.298M60.9131 451.552H22.1272M60.9131 419.298V387.045M60.9131 419.298H22.1272M60.9131 387.045V354.791M60.9131 387.045H22.1272M60.9131 354.791V322.538M60.9131 354.791H22.1272M60.9131 322.538V290.283M60.9131 322.538H22.1272M60.9131 290.283V258.03M60.9131 290.283H22.1272M60.9131 258.03V225.776M60.9131 258.03H22.1272M60.9131 225.776V193.523M60.9131 225.776H22.1272M60.9131 193.523V161.269M60.9131 193.523H22.1272M60.9131 161.269V129.015M60.9131 161.269H22.1272M60.9131 129.015V96.7618M60.9131 129.015H22.1272M60.9131 96.7618V64.5075M60.9131 96.7618H22.1272M60.9131 64.5075V32.2542M60.9131 64.5075H22.1272M60.9131 32.2542V4.64738e-06M60.9131 32.2542H22.1272M60.9131 4.64738e-06H22.1272M22.1272 612.821V645.074M22.1272 612.821V580.567M22.1272 612.821H-16.6467M22.1272 580.567V548.313M22.1272 580.567H-16.6467M22.1272 548.313V516.059M22.1272 548.313H-16.6467M22.1272 516.059V483.806M22.1272 516.059H-16.6467M22.1272 483.806V451.552M22.1272 483.806H-16.6467M22.1272 451.552V419.298M22.1272 451.552H-16.6467M22.1272 419.298V387.045M22.1272 419.298H-16.6467M22.1272 387.045V354.791M22.1272 387.045H-16.6467M22.1272 354.791V322.538M22.1272 354.791H-16.6467M22.1272 322.538V290.283M22.1272 322.538H-16.6467M22.1272 290.283V258.03M22.1272 290.283H-16.6467M22.1272 258.03V225.776M22.1272 258.03H-16.6467M22.1272 225.776V193.523M22.1272 225.776H-16.6467M22.1272 193.523V161.269M22.1272 193.523H-16.6467M22.1272 161.269V129.015M22.1272 161.269H-16.6467M22.1272 129.015V96.7618M22.1272 129.015H-16.6467M22.1272 96.7618V64.5075M22.1272 96.7618H-16.6467M22.1272 64.5075V32.2542M22.1272 64.5075H-16.6467M22.1272 32.2542V4.64738e-06M22.1272 32.2542H-16.6467M22.1272 4.64738e-06H-16.6467M-16.6467 612.821V645.074M-16.6467 612.821V580.567M-16.6467 612.821H-55.4207M-16.6467 580.567V548.313M-16.6467 580.567H-55.4207M-16.6467 548.313V516.059M-16.6467 548.313H-55.4207M-16.6467 516.059V483.806M-16.6467 516.059H-55.4207M-16.6467 483.806V451.552M-16.6467 483.806H-55.4207M-16.6467 451.552V419.298M-16.6467 451.552H-55.4207M-16.6467 419.298V387.045M-16.6467 419.298H-55.4207M-16.6467 387.045V354.791M-16.6467 387.045H-55.4207M-16.6467 354.791V322.538M-16.6467 354.791H-55.4207M-16.6467 322.538V290.283M-16.6467 322.538H-55.4207M-16.6467 290.283V258.03M-16.6467 290.283H-55.4207M-16.6467 258.03V225.776M-16.6467 258.03H-55.4207M-16.6467 225.776V193.523M-16.6467 225.776H-55.4207M-16.6467 193.523V161.269M-16.6467 193.523H-55.4207M-16.6467 161.269V129.015M-16.6467 161.269H-55.4207M-16.6467 129.015V96.7618M-16.6467 129.015H-55.4207M-16.6467 96.7618V64.5075M-16.6467 96.7618H-55.4207M-16.6467 64.5075V32.2542M-16.6467 64.5075H-55.4207M-16.6467 32.2542V4.64738e-06M-16.6467 32.2542H-55.4207M-16.6467 4.64738e-06H-55.4207M-55.4207 612.821V645.074M-55.4207 612.821V580.567M-55.4207 612.821H-94.1946M-55.4207 580.567V548.313M-55.4207 580.567H-94.1946M-55.4207 548.313V516.059M-55.4207 548.313H-94.1946M-55.4207 516.059V483.806M-55.4207 516.059H-94.1946M-55.4207 483.806V451.552M-55.4207 483.806H-94.1946M-55.4207 451.552V419.298M-55.4207 451.552H-94.1946M-55.4207 419.298V387.045M-55.4207 419.298H-94.1946M-55.4207 387.045V354.791M-55.4207 387.045H-94.1946M-55.4207 354.791V322.538M-55.4207 354.791H-94.1946M-55.4207 322.538V290.283M-55.4207 322.538H-94.1946M-55.4207 290.283V258.03M-55.4207 290.283H-94.1946M-55.4207 258.03V225.776M-55.4207 258.03H-94.1946M-55.4207 225.776V193.523M-55.4207 225.776H-94.1946M-55.4207 193.523V161.269M-55.4207 193.523H-94.1946M-55.4207 161.269V129.015M-55.4207 161.269H-94.1946M-55.4207 129.015V96.7618M-55.4207 129.015H-94.1946M-55.4207 96.7618V64.5075M-55.4207 96.7618H-94.1946M-55.4207 64.5075V32.2542M-55.4207 64.5075H-94.1946M-55.4207 32.2542V4.64738e-06M-55.4207 32.2542H-94.1946M-55.4207 4.64738e-06H-94.1946M-94.1946 612.821V645.074M-94.1946 612.821V580.567M-94.1946 612.821H-132.981M-94.1946 580.567V548.313M-94.1946 580.567H-132.981M-94.1946 548.313V516.059M-94.1946 548.313H-132.981M-94.1946 516.059V483.806M-94.1946 516.059H-132.981M-94.1946 483.806V451.552M-94.1946 483.806H-132.981M-94.1946 451.552V419.298M-94.1946 451.552H-132.981M-94.1946 419.298V387.045M-94.1946 419.298H-132.981M-94.1946 387.045V354.791M-94.1946 387.045H-132.981M-94.1946 354.791V322.538M-94.1946 354.791H-132.981M-94.1946 322.538V290.283M-94.1946 322.538H-132.981M-94.1946 290.283V258.03M-94.1946 290.283H-132.981M-94.1946 258.03V225.776M-94.1946 258.03H-132.981M-94.1946 225.776V193.523M-94.1946 225.776H-132.981M-94.1946 193.523V161.269M-94.1946 193.523H-132.981M-94.1946 161.269V129.015M-94.1946 161.269H-132.981M-94.1946 129.015V96.7618M-94.1946 129.015H-132.981M-94.1946 96.7618V64.5075M-94.1946 96.7618H-132.981M-94.1946 64.5075V32.2542M-94.1946 64.5075H-132.981M-94.1946 32.2542V4.64738e-06M-94.1946 32.2542H-132.981M-94.1946 4.64738e-06H-132.981V32.2542M-132.981 612.821V645.074M-132.981 612.821V580.567M-132.981 580.567V548.313M-132.981 548.313V516.059M-132.981 516.059V483.806M-132.981 483.806V451.552M-132.981 451.552V419.298M-132.981 419.298V387.045M-132.981 387.045V354.791M-132.981 354.791V322.538M-132.981 322.538V290.283M-132.981 290.283V258.03M-132.981 258.03V225.776M-132.981 225.776V193.523M-132.981 193.523V161.269M-132.981 161.269V129.015M-132.981 129.015V96.7618M-132.981 96.7618V64.5075M-132.981 64.5075V32.2542" stroke="url(#paint0_linear_4544_256)" stroke-opacity="0.15" stroke-miterlimit="10"/>
<defs>
<linearGradient id="paint0_linear_4544_256" x1="64.8895" y1="363.286" x2="1468.97" y2="363.286" gradientUnits="userSpaceOnUse">
<stop stop-color="white" stop-opacity="0"/>
<stop offset="0.49" stop-color="white"/>
<stop offset="1" stop-color="white" stop-opacity="0"/>
</linearGradient>
</defs>
</svg>
