<svg id="Instagram" xmlns="http://www.w3.org/2000/svg" width="26" height="26" viewBox="0 0 195.253 195.291">
  <path id="Path_3265" data-name="Path 3265" d="M195.206,57.416c-.458-10.377-2.136-17.51-4.539-23.692A50.027,50.027,0,0,0,162.091,5.15c-6.217-2.4-13.314-4.082-23.69-4.539C127.947.115,124.628,0,98.113,0S68.28.115,57.865.572c-10.377.458-17.51,2.137-23.69,4.539A47.65,47.65,0,0,0,16.853,16.4,48.082,48.082,0,0,0,5.6,33.687C3.2,39.906,1.517,47,1.06,57.377.563,67.832.449,71.15.449,97.665s.115,29.833.572,40.249c.458,10.377,2.137,17.51,4.541,23.692a50.018,50.018,0,0,0,28.574,28.574c6.219,2.4,13.314,4.082,23.692,4.539,10.414.459,13.734.572,40.249.572s29.833-.113,40.249-.572c10.377-.458,17.51-2.136,23.69-4.539a49.952,49.952,0,0,0,28.575-28.574c2.4-6.219,4.082-13.315,4.539-23.692.458-10.415.572-13.734.572-40.249s-.039-29.833-.5-40.249ZM177.62,137.15c-.42,9.538-2.022,14.688-3.358,18.121a32.4,32.4,0,0,1-18.542,18.542c-3.434,1.335-8.621,2.937-18.121,3.356-10.3.459-13.39.572-39.447.572s-29.185-.113-39.448-.572c-9.538-.419-14.688-2.021-18.121-3.356a30.051,30.051,0,0,1-11.216-7.287A30.362,30.362,0,0,1,22.08,155.31c-1.335-3.434-2.937-8.623-3.356-18.121-.459-10.3-.572-13.391-.572-39.448s.113-29.185.572-39.447c.419-9.538,2.021-14.688,3.356-18.121a29.683,29.683,0,0,1,7.326-11.217A30.316,30.316,0,0,1,40.622,21.67c3.434-1.335,8.623-2.937,18.121-3.358,10.3-.458,13.391-.572,39.447-.572,26.1,0,29.185.115,39.448.572,9.538.42,14.688,2.022,18.121,3.358a30.029,30.029,0,0,1,11.216,7.286,30.356,30.356,0,0,1,7.287,11.217c1.335,3.434,2.937,8.621,3.358,18.121.458,10.3.572,13.39.572,39.447s-.115,29.109-.572,39.41Zm0,0" transform="translate(-0.449 0)" fill="#fff"/>
  <path id="Path_3266" data-name="Path 3266" d="M175.117,124.5a50.168,50.168,0,1,0,50.168,50.168A50.18,50.18,0,0,0,175.117,124.5Zm0,82.71a32.542,32.542,0,1,1,32.542-32.542,32.548,32.548,0,0,1-32.542,32.542Zm0,0" transform="translate(-77.452 -77.003)" fill="#fff"/>
  <path id="Path_3267" data-name="Path 3267" d="M385.875,100.314A11.713,11.713,0,1,1,374.162,88.6,11.713,11.713,0,0,1,385.875,100.314Zm0,0" transform="translate(-224.345 -54.8)" fill="#fff"/>
</svg>
