<svg width="19" height="19" viewBox="0 0 19 19" fill="none" xmlns="http://www.w3.org/2000/svg">
<g id="octicon:location-16" clip-path="url(#clip0_4802_3678)">
<path id="Vector" d="M14.9772 13.8206L11.0004 17.7986C10.8436 17.9554 10.6576 18.0798 10.4528 18.1646C10.248 18.2495 10.0284 18.2932 9.80673 18.2932C9.58503 18.2932 9.36551 18.2495 9.1607 18.1646C8.95589 18.0798 8.76982 17.9554 8.6131 17.7986L4.63623 13.8206C3.95716 13.1416 3.41847 12.3355 3.05093 11.4483C2.68339 10.5611 2.49419 9.6102 2.49414 8.6499C2.49409 7.6896 2.68318 6.73869 3.05063 5.85146C3.41807 4.96424 3.95667 4.15808 4.63567 3.479C5.31467 2.79993 6.12077 2.26124 7.00796 1.8937C7.89514 1.52616 8.84603 1.33697 9.80633 1.33691C10.7666 1.33686 11.7175 1.52596 12.6048 1.8934C13.492 2.26084 14.2982 2.79944 14.9772 3.47844C15.6564 4.15748 16.1951 4.96365 16.5626 5.85091C16.9302 6.73816 17.1194 7.68913 17.1194 8.6495C17.1194 9.60988 16.9302 10.5608 16.5626 11.4481C16.1951 12.3354 15.6564 13.1415 14.9772 13.8206ZM13.7847 4.67207C13.2623 4.14967 12.6422 3.73528 11.9596 3.45256C11.2771 3.16984 10.5455 3.02432 9.80673 3.02432C9.06795 3.02432 8.3364 3.16984 7.65385 3.45256C6.9713 3.73528 6.35113 4.14967 5.82873 4.67207C5.30633 5.19446 4.89194 5.81464 4.60922 6.49719C4.3265 7.17973 4.18099 7.91128 4.18099 8.65007C4.18099 9.38885 4.3265 10.1204 4.60922 10.8029C4.89194 11.4855 5.30633 12.1057 5.82873 12.6281L9.80673 16.6038L13.7847 12.6281C14.3072 12.1057 14.7217 11.4856 15.0045 10.803C15.2872 10.1204 15.4328 9.38888 15.4328 8.65007C15.4328 7.91126 15.2872 7.17968 15.0045 6.49713C14.7217 5.81458 14.3072 5.19441 13.7847 4.67207ZM9.80673 10.9001C9.5071 10.9068 9.20913 10.8537 8.93033 10.7437C8.65152 10.6338 8.39749 10.4692 8.18316 10.2597C7.96883 10.0502 7.79851 9.80002 7.6822 9.5238C7.56589 9.24758 7.50594 8.95091 7.50586 8.6512C7.50579 8.3515 7.56559 8.05479 7.68176 7.77852C7.79793 7.50224 7.96813 7.25195 8.18236 7.04236C8.39658 6.83276 8.65053 6.66808 8.92928 6.55797C9.20803 6.44787 9.50597 6.39456 9.8056 6.40119C10.3935 6.41419 10.9529 6.65682 11.3641 7.07713C11.7754 7.49745 12.0057 8.06205 12.0059 8.65008C12.006 9.2381 11.776 9.80282 11.3649 10.2233C10.9539 10.6439 10.3946 10.8868 9.80673 10.9001Z" fill="#09090F"/>
</g>
<defs>
<clipPath id="clip0_4802_3678">
<rect width="18" height="18" fill="white" transform="translate(0.806641 0.774902)"/>
</clipPath>
</defs>
</svg>
