<svg width="154" height="55" viewBox="0 0 154 55" fill="none" xmlns="http://www.w3.org/2000/svg">
<path d="M61.8015 30H58.8356L63.3548 16.9091H66.9216L71.4343 30H68.4684L65.1893 19.9006H65.087L61.8015 30ZM61.6162 24.8544H68.6218V27.0149H61.6162V24.8544ZM72.4716 30V20.1818H75.1946V30H72.4716ZM73.8395 18.9162C73.4346 18.9162 73.0873 18.782 72.7976 18.5135C72.5121 18.2408 72.3693 17.9148 72.3693 17.5355C72.3693 17.1605 72.5121 16.8388 72.7976 16.5703C73.0873 16.2976 73.4346 16.1612 73.8395 16.1612C74.2443 16.1612 74.5895 16.2976 74.875 16.5703C75.1648 16.8388 75.3096 17.1605 75.3096 17.5355C75.3096 17.9148 75.1648 18.2408 74.875 18.5135C74.5895 18.782 74.2443 18.9162 73.8395 18.9162ZM88.599 16.9091H91.3667V25.4105C91.3667 26.3651 91.1387 27.2003 90.6828 27.9162C90.2311 28.6321 89.5983 29.1903 88.7843 29.5909C87.9704 29.9872 87.0223 30.1854 85.9399 30.1854C84.8532 30.1854 83.9029 29.9872 83.089 29.5909C82.2751 29.1903 81.6423 28.6321 81.1906 27.9162C80.7389 27.2003 80.513 26.3651 80.513 25.4105V16.9091H83.2808V25.174C83.2808 25.6726 83.3894 26.1158 83.6068 26.5036C83.8284 26.8913 84.1394 27.196 84.54 27.4176C84.9406 27.6392 85.4072 27.75 85.9399 27.75C86.4768 27.75 86.9434 27.6392 87.3397 27.4176C87.7403 27.196 88.0492 26.8913 88.2666 26.5036C88.4882 26.1158 88.599 25.6726 88.599 25.174V16.9091ZM95.7758 24.3239V30H93.0527V20.1818H95.6479V21.9141H95.763C95.9803 21.343 96.3446 20.8913 96.856 20.5589C97.3674 20.2223 97.9874 20.054 98.7161 20.054C99.3979 20.054 99.9924 20.2031 100.499 20.5014C101.007 20.7997 101.401 21.2259 101.682 21.7798C101.963 22.3295 102.104 22.9858 102.104 23.7486V30H99.3809V24.2344C99.3851 23.6335 99.2317 23.1648 98.9206 22.8281C98.6096 22.4872 98.1813 22.3168 97.6358 22.3168C97.2694 22.3168 96.9455 22.3956 96.6643 22.5533C96.3873 22.7109 96.1699 22.9411 96.0123 23.2436C95.8589 23.5419 95.78 23.902 95.7758 24.3239ZM103.71 30V20.1818H106.433V30H103.71ZM105.078 18.9162C104.673 18.9162 104.326 18.782 104.036 18.5135C103.75 18.2408 103.608 17.9148 103.608 17.5355C103.608 17.1605 103.75 16.8388 104.036 16.5703C104.326 16.2976 104.673 16.1612 105.078 16.1612C105.483 16.1612 105.828 16.2976 106.113 16.5703C106.403 16.8388 106.548 17.1605 106.548 17.5355C106.548 17.9148 106.403 18.2408 106.113 18.5135C105.828 18.782 105.483 18.9162 105.078 18.9162ZM117.228 20.1818L113.795 30H110.727L107.294 20.1818H110.171L112.21 27.2067H112.312L114.345 20.1818H117.228ZM122.239 30.1918C121.229 30.1918 120.36 29.9872 119.631 29.5781C118.907 29.1648 118.349 28.581 117.957 27.8267C117.564 27.0682 117.368 26.1712 117.368 25.1357C117.368 24.1257 117.564 23.2393 117.957 22.4766C118.349 21.7138 118.9 21.1193 119.612 20.6932C120.328 20.267 121.167 20.054 122.131 20.054C122.778 20.054 123.381 20.1584 123.939 20.3672C124.502 20.5717 124.992 20.8807 125.41 21.294C125.832 21.7074 126.16 22.2273 126.394 22.8537C126.628 23.4759 126.746 24.2045 126.746 25.0398V25.7876H118.455V24.1001H124.182C124.182 23.7081 124.097 23.3608 123.927 23.0582C123.756 22.7557 123.52 22.5192 123.217 22.3487C122.919 22.174 122.572 22.0866 122.175 22.0866C121.762 22.0866 121.395 22.1825 121.076 22.3743C120.761 22.5618 120.513 22.8153 120.334 23.1349C120.155 23.4503 120.064 23.8018 120.06 24.1896V25.794C120.06 26.2798 120.149 26.6996 120.328 27.0533C120.511 27.407 120.769 27.6797 121.101 27.8714C121.434 28.0632 121.828 28.1591 122.284 28.1591C122.587 28.1591 122.864 28.1165 123.115 28.0312C123.366 27.946 123.582 27.8182 123.761 27.6477C123.939 27.4773 124.076 27.2685 124.17 27.0213L126.688 27.1875C126.56 27.7926 126.298 28.321 125.902 28.7727C125.51 29.2202 125.003 29.5696 124.381 29.821C123.763 30.0682 123.049 30.1918 122.239 30.1918ZM127.983 30V20.1818H130.623V21.8949H130.725C130.904 21.2855 131.204 20.8253 131.626 20.5142C132.048 20.1989 132.534 20.0412 133.083 20.0412C133.22 20.0412 133.367 20.0497 133.524 20.0668C133.682 20.0838 133.821 20.1072 133.94 20.1371V22.5533C133.812 22.5149 133.635 22.4808 133.409 22.451C133.184 22.4212 132.977 22.4062 132.789 22.4062C132.389 22.4062 132.031 22.4936 131.716 22.6683C131.404 22.8388 131.157 23.0774 130.974 23.3842C130.795 23.6911 130.706 24.0447 130.706 24.4453V30H127.983ZM142.977 22.9815L140.484 23.1349C140.441 22.9219 140.35 22.7301 140.209 22.5597C140.068 22.3849 139.883 22.2464 139.653 22.1442C139.427 22.0376 139.157 21.9844 138.841 21.9844C138.419 21.9844 138.064 22.0739 137.774 22.2528C137.484 22.4276 137.339 22.6619 137.339 22.956C137.339 23.1903 137.433 23.3885 137.62 23.5504C137.808 23.7124 138.13 23.8423 138.586 23.9403L140.363 24.2983C141.317 24.4943 142.029 24.8097 142.497 25.2443C142.966 25.679 143.201 26.25 143.201 26.9574C143.201 27.6009 143.011 28.1655 142.632 28.6513C142.257 29.1371 141.741 29.5163 141.085 29.7891C140.433 30.0575 139.681 30.1918 138.828 30.1918C137.529 30.1918 136.493 29.9212 135.722 29.38C134.955 28.8345 134.505 28.093 134.373 27.1555L137.051 27.0149C137.132 27.4112 137.328 27.7138 137.64 27.9226C137.951 28.1271 138.349 28.2294 138.835 28.2294C139.312 28.2294 139.696 28.1378 139.985 27.9545C140.279 27.767 140.429 27.5263 140.433 27.2322C140.429 26.9851 140.324 26.7827 140.12 26.625C139.915 26.4631 139.6 26.3395 139.174 26.2543L137.473 25.9155C136.515 25.7237 135.801 25.3913 135.332 24.9183C134.867 24.4453 134.635 23.8423 134.635 23.1094C134.635 22.4787 134.806 21.9354 135.147 21.4794C135.492 21.0234 135.975 20.6719 136.598 20.4247C137.224 20.1776 137.957 20.054 138.796 20.054C140.037 20.054 141.012 20.3161 141.724 20.8402C142.44 21.3643 142.858 22.0781 142.977 22.9815ZM148.85 30.1918C147.84 30.1918 146.97 29.9872 146.242 29.5781C145.517 29.1648 144.959 28.581 144.567 27.8267C144.175 27.0682 143.979 26.1712 143.979 25.1357C143.979 24.1257 144.175 23.2393 144.567 22.4766C144.959 21.7138 145.511 21.1193 146.223 20.6932C146.938 20.267 147.778 20.054 148.741 20.054C149.389 20.054 149.992 20.1584 150.55 20.3672C151.112 20.5717 151.603 20.8807 152.02 21.294C152.442 21.7074 152.77 22.2273 153.005 22.8537C153.239 23.4759 153.356 24.2045 153.356 25.0398V25.7876H145.066V24.1001H150.793C150.793 23.7081 150.708 23.3608 150.537 23.0582C150.367 22.7557 150.13 22.5192 149.828 22.3487C149.529 22.174 149.182 22.0866 148.786 22.0866C148.372 22.0866 148.006 22.1825 147.686 22.3743C147.371 22.5618 147.124 22.8153 146.945 23.1349C146.766 23.4503 146.674 23.8018 146.67 24.1896V25.794C146.67 26.2798 146.759 26.6996 146.938 27.0533C147.122 27.407 147.38 27.6797 147.712 27.8714C148.044 28.0632 148.438 28.1591 148.894 28.1591C149.197 28.1591 149.474 28.1165 149.725 28.0312C149.977 27.946 150.192 27.8182 150.371 27.6477C150.55 27.4773 150.686 27.2685 150.78 27.0213L153.299 27.1875C153.171 27.7926 152.909 28.321 152.512 28.7727C152.12 29.2202 151.613 29.5696 150.991 29.821C150.373 30.0682 149.659 30.1918 148.85 30.1918Z" fill="white"/>
<g filter="url(#filter0_f_1_4)">
<path d="M18.4183 24.0062L25.5206 17.3937C29.0718 17.3219 32.3142 18.6875 35.3249 21.4906C38.3357 24.2937 39.8025 27.3125 39.7253 30.6187L32.6229 37.2312C28.6858 40.8969 22.3555 40.8969 18.4183 37.2312C14.4812 33.5656 14.4812 27.6719 18.4183 24.0062Z" fill="#EC6DFF" fill-opacity="0.75"/>
</g>
<path d="M18.4183 24.0062L25.5206 17.3937C29.0718 17.3219 32.3142 18.6875 35.3249 21.4906C38.3357 24.2937 39.8025 27.3125 39.7253 30.6187L32.6229 37.2312C28.6858 40.8969 22.3555 40.8969 18.4183 37.2312C14.4812 33.5656 14.4812 27.6719 18.4183 24.0062Z" fill="#EC6DFF"/>
<path d="M19.4991 25.0125C16.1795 28.1031 16.1795 33.1344 19.4991 36.225C22.8187 39.3156 28.2226 39.3156 31.5422 36.225L47.9084 20.9875C51.2279 17.8969 51.2279 12.8656 47.9084 9.775C44.5888 6.68438 39.1849 6.68438 35.8653 9.775L19.4991 25.0125ZM18.4183 24.0063L34.7845 8.76875C38.7217 5.10312 45.052 5.10312 48.9892 8.76875C52.9263 12.4344 52.9263 18.3281 48.9892 21.9938L32.6229 37.2312C28.6858 40.8969 22.3555 40.8969 18.4183 37.2312C14.4812 33.5656 14.4812 27.6719 18.4183 24.0063Z" fill="#502E55"/>
<path d="M37.4864 19.4781C36.8688 20.0531 35.9424 20.0531 35.3248 19.4781C34.7073 18.9031 34.7073 18.0406 35.3248 17.4656C35.9424 16.8906 36.8688 16.8906 37.4864 17.4656C38.104 17.9687 38.104 18.9031 37.4864 19.4781ZM44.0483 22.4969C43.4307 23.0719 42.5044 23.0719 41.8868 22.4969C41.2692 21.9219 41.2692 21.0594 41.8868 20.4844C42.5044 19.9094 43.4307 19.9094 44.0483 20.4844C44.6659 21.0594 44.6659 21.9219 44.0483 22.4969ZM44.8975 14.5906C44.4343 15.0219 43.7395 15.0219 43.2764 14.5906C42.8132 14.1594 42.8132 13.5125 43.2764 13.0813C43.7395 12.65 44.4343 12.65 44.8975 13.0813C45.3607 13.5125 45.3607 14.1594 44.8975 14.5906ZM47.9083 13.8719C47.5995 14.1594 47.1363 14.1594 46.8275 13.8719C46.5187 13.5844 46.5187 13.1531 46.8275 12.8656C47.1363 12.5781 47.5995 12.5781 47.9083 12.8656C48.2171 13.0812 48.2171 13.5844 47.9083 13.8719ZM42.9676 11.2844C42.6588 11.5719 42.1956 11.5719 41.8868 11.2844C41.578 10.9969 41.578 10.5656 41.8868 10.2781C42.1956 9.99063 42.6588 9.99063 42.9676 10.2781C43.2763 10.5656 43.2763 10.9969 42.9676 11.2844ZM41.8868 18.4C41.578 18.6875 41.1148 18.6875 40.806 18.4C40.4972 18.1125 40.4972 17.6813 40.806 17.3938C41.1148 17.1063 41.578 17.1063 41.8868 17.3938C42.1956 17.6813 42.1956 18.1125 41.8868 18.4ZM35.8652 13.8719C35.5564 14.1594 35.0932 14.1594 34.7845 13.8719C34.4757 13.5844 34.4757 13.1531 34.7845 12.8656C35.0932 12.5781 35.5564 12.5781 35.8652 12.8656C36.174 13.0812 36.174 13.5844 35.8652 13.8719ZM41.0376 13.0813C40.2656 13.8 39.0304 13.8 38.3356 13.0813C37.6408 12.3625 37.5636 11.2125 38.3356 10.5656C39.1076 9.91875 40.3428 9.84688 41.0376 10.5656C41.7324 11.2844 41.8096 12.3625 41.0376 13.0813Z" fill="#EC6DFF"/>
<defs>
<filter id="filter0_f_1_4" x="0.465454" y="2.39105" width="54.2627" height="52.5894" filterUnits="userSpaceOnUse" color-interpolation-filters="sRGB">
<feFlood flood-opacity="0" result="BackgroundImageFix"/>
<feBlend mode="normal" in="SourceGraphic" in2="BackgroundImageFix" result="shape"/>
<feGaussianBlur stdDeviation="7.5" result="effect1_foregroundBlur_1_4"/>
</filter>
</defs>
</svg>
