<svg width="1826" height="335" viewBox="0 0 1826 335" fill="none" xmlns="http://www.w3.org/2000/svg">
<path d="M97.1914 66.9308C97.9435 66.8431 98.5075 67.2818 99.1008 67.6244C107.632 72.5712 116.135 77.5682 124.712 82.4315C126.367 83.3715 127.052 84.3951 127.002 86.3337C126.868 91.7526 127.081 97.18 126.914 102.599C126.801 106.238 128.306 108.561 131.422 110.324C152.985 122.52 174.465 122.428 195.998 110.245C199.412 108.315 200.904 105.67 200.774 101.759C200.603 96.4823 200.782 91.1929 200.707 85.9076C200.686 84.3534 201.125 83.4007 202.554 82.5944C211.382 77.6141 220.152 72.5294 228.943 67.4781C231.926 67.8792 231.119 70.3484 231.165 72.028C231.353 79.1265 231.454 86.2377 231.169 93.3279C230.977 98.1535 232.882 101.078 237.069 103.309C243.699 106.84 250.146 110.734 256.551 114.665C257.943 115.522 260.136 116.048 259.162 118.572C255.448 120.736 251.734 122.9 248.02 125.064C242.513 128.273 239.735 133.015 239.743 139.441C239.776 158.188 239.78 176.939 239.743 195.686C239.726 202.3 242.68 207.067 248.329 210.314C251.934 212.39 255.528 214.492 259.125 216.581C260.215 218.152 258.916 218.9 257.934 219.489C249.628 224.486 241.285 229.424 232.816 234.145C231.963 234.622 231.002 234.822 230.004 234.747C225.562 233.377 221.886 230.54 217.875 228.346C213.116 225.743 208.47 222.931 203.828 220.124C202.575 219.368 200.544 218.778 201.643 216.485C205.27 214.425 208.892 212.361 212.527 210.31C218.243 207.084 221.15 202.204 221.176 195.636C221.196 189.787 221.196 183.938 221.196 178.092C221.196 163.887 221.196 149.686 221.196 135.48C221.196 134.365 221.226 133.249 221.176 132.138C220.975 127.747 219.308 126.071 214.988 126.159C207.58 126.309 200.682 128.386 194.499 132.409C180.803 141.317 173.266 154.006 173.111 170.367C172.827 200.445 173.007 230.523 173.028 260.601C173.036 268.209 176.499 273.904 182.992 277.785C186.096 279.64 189.226 281.449 192.343 283.279C193.254 284.57 192.405 285.49 191.478 286.029C182.386 291.268 173.796 297.41 164.028 301.458C161.722 301.299 159.833 300.079 157.957 298.935C151.452 294.974 144.742 291.368 138.187 287.499C136.611 286.568 134.431 285.999 134.857 283.392C138.224 281.454 141.629 279.565 144.959 277.56C151.314 273.728 154.615 267.992 154.636 260.643C154.719 233.385 155.233 206.111 154.473 178.874C153.804 154.85 141.813 137.106 120.814 125.449C118.215 124.007 115.796 124.229 113.394 125.896C108.974 128.963 106.458 133.212 106.425 138.535C106.304 157.866 106.287 177.198 106.425 196.526C106.467 202.346 109.358 206.804 114.384 209.875C118.383 212.319 122.736 214.187 126.384 217.207C126.814 218.465 125.857 218.991 125.063 219.447C116.44 224.39 107.95 229.562 99.2053 234.3C98.5911 234.634 97.9017 234.743 97.1998 234.734C94.3337 234.358 92.1694 232.499 89.7712 231.154C83.7297 227.765 77.6841 224.377 71.7303 220.838C70.1719 219.915 68.6093 219 67.9492 217.153C71.3585 214.513 75.2315 212.641 78.9625 210.539C85.121 207.067 88.054 201.958 88.0122 194.851C87.9036 176.63 87.912 158.405 88.0122 140.185C88.0498 133.061 84.9873 128.027 78.8665 124.546C75.1563 122.436 71.1955 120.711 67.9199 117.878C68.7764 115.797 70.5688 114.736 72.4113 113.721C78.7453 110.232 84.8411 106.322 91.2252 102.933C94.5635 101.162 96.0007 98.8011 95.8837 94.9531C95.6581 87.4535 95.8043 79.9372 95.8252 72.4292C95.8294 70.4864 95.7249 68.5017 97.1914 66.9141V66.9308Z" fill="white"/>
<path d="M134.861 283.404C135.133 284.883 136.495 285.209 137.531 285.807C146.301 290.875 155.091 295.901 163.878 300.94C165.457 302.26 165.378 304.132 165.395 305.899C165.482 313.896 165.445 321.897 165.424 329.894C165.42 331.736 165.014 333.445 164.007 334.995C161.434 334.652 159.558 332.873 157.423 331.678C150.416 327.759 143.535 323.614 136.537 319.678C134.765 318.684 133.955 317.556 133.975 315.454C134.072 305.619 134.005 295.784 134.026 285.949C134.026 285.042 133.7 283.956 134.865 283.404H134.861Z" fill="#CDFF09"/>
<path d="M30.2967 133.773C31.3872 133.459 32.1476 134.195 32.9624 134.663C41.1305 139.359 49.2484 144.147 57.4751 148.738C59.5641 149.904 60.3537 151.229 60.3203 153.635C60.1824 163.203 60.2785 172.771 60.2451 182.343C60.2451 183.362 60.759 184.62 59.3886 185.276C49.6913 180.458 40.5664 174.63 31.2076 169.219C30.2174 168.647 29.5113 167.799 29.2021 166.65C28.3665 156.819 28.8595 146.984 28.9096 137.153C28.9138 135.874 29.365 134.709 30.2967 133.773Z" fill="#82A300"/>
<path d="M134.782 51.7436C133.578 51.1838 134.013 50.0724 134.009 49.1866C133.979 39.4518 134.038 29.7127 133.954 19.9778C133.938 17.9515 134.506 16.6521 136.332 15.6201C144.926 10.7694 153.445 5.78492 162.01 0.888226C162.883 0.386858 163.832 -0.657646 164.939 0.587418C165.737 11.3668 165.54 22.1462 165.039 32.9215C164.78 34.037 164.224 35.0397 163.247 35.6121C153.829 41.1188 144.704 47.1436 134.777 51.7436H134.782Z" fill="#CDFF09"/>
<path d="M201.643 216.498C201.614 218.37 203.318 218.52 204.421 219.168C212.907 224.156 221.426 229.087 229.933 234.038C231.876 234.965 232.155 236.77 232.189 238.596C232.352 247.031 232.302 255.467 232.222 263.902C232.206 265.482 231.637 266.869 230.835 268.185C229.59 268.507 228.725 267.646 227.802 267.12C219.755 262.519 211.766 257.802 203.674 253.282C201.459 252.045 200.628 250.562 200.665 248.03C200.799 238.617 200.69 229.199 200.745 219.782C200.749 218.662 200.101 217.246 201.643 216.498Z" fill="#CDFF09"/>
<path d="M259.167 118.58C259.016 116.809 257.399 116.587 256.263 115.919C248.943 111.632 241.673 107.245 234.224 103.201C231.069 101.488 230.008 99.2609 230.075 95.8265C230.238 87.7587 230.154 79.6824 230.1 71.6104C230.092 70.1773 230.706 68.4685 228.947 67.4867C230.288 65.7988 231.449 67.1942 232.523 67.8042C238.911 71.4308 245.262 75.1284 251.625 78.8051C253.785 80.0544 255.912 81.3704 258.118 82.5277C259.488 83.2464 260.132 84.1279 260.123 85.7616C260.061 96.0271 260.098 106.293 260.082 116.558C260.082 117.327 260.299 118.279 259.171 118.576L259.167 118.58Z" fill="#82A300"/>
<path d="M123.263 115.919C115.943 111.632 108.673 107.245 101.224 103.201C98.0692 101.488 97.008 99.2609 97.0749 95.8265C97.2378 87.7587 97.1542 79.6824 97.0999 71.6104C97.0916 70.1773 97.7057 68.4685 95.9468 67.4867C97.2879 65.7988 98.4495 67.1942 99.5232 67.8042C105.911 71.4308 112.262 75.1284 118.625 78.8051C120.785 80.0544 122.912 81.3704 125.118 82.5277C126.488 83.2464 127.132 84.1279 127.123 85.7616C127.061 96.0271 127.098 106.293 127.082 116.558C127.08 117.822 124.881 116.871 123.263 115.919Z" fill="#82A300"/>
<path d="M97.0161 234.096C103.066 231.372 108.518 227.578 114.309 224.39C118.408 222.134 122.369 219.619 126.388 217.221C127.123 217.868 126.931 218.746 126.931 219.556C126.939 229.3 126.914 239.043 126.956 248.782C126.964 250.411 126.731 251.635 125.101 252.559C116.147 257.635 107.265 262.824 98.3406 267.955C98.0063 268.147 97.5426 268.105 97.1373 268.172C95.8588 266.89 95.6666 265.243 95.6499 263.568C95.5831 255.149 95.5538 246.726 95.6666 238.307C95.6875 236.791 95.7878 235.249 97.012 234.092L97.0161 234.096Z" fill="#82A300"/>
<path d="M326.095 150.379C327.161 151.047 326.747 152.121 326.747 153.028C326.776 162.759 326.726 172.489 326.806 182.22C326.818 183.954 326.325 185.053 324.796 185.926C315.989 190.948 307.223 196.049 298.428 201.092C297.994 201.343 297.375 201.276 296.845 201.36C295.942 200.407 295.487 199.246 295.478 197.963C295.441 188.128 294.935 178.284 295.75 168.462C296.114 166.999 297.212 166.164 298.424 165.441C306.529 160.603 314.848 156.128 322.92 151.227C323.898 150.634 324.967 150.396 326.099 150.383L326.095 150.379Z" fill="#82A300"/>
<path d="M134.782 51.7438C135.083 50.2647 136.474 49.9765 137.502 49.379C146.28 44.2776 155.091 39.2305 163.89 34.1709C165.227 33.5651 166.305 34.292 167.354 34.9187C175.025 39.5271 182.871 43.8389 190.571 48.4013C191.674 49.0531 192.606 49.801 193.091 51.0168C192.924 51.9987 192.021 52.1992 191.344 52.5919C182.959 57.4427 174.528 62.2098 166.197 67.1483C164.413 68.2054 163.138 68.2304 161.346 67.165C152.543 61.9383 143.648 56.8703 134.782 51.748V51.7438Z" fill="white"/>
<path d="M30.1836 167.869C32.5902 168.278 34.3742 169.916 36.3964 171.065C43.357 175.005 50.2592 179.049 57.1781 183.06C58.1056 183.599 59.2671 183.921 59.3883 185.274C50.6227 190.347 41.8153 195.348 33.1208 200.541C31.1404 201.723 29.7156 201.565 27.8355 200.453C19.2371 195.381 10.555 190.447 1.90227 185.462C0.765834 183.695 2.22817 182.826 3.29775 182.183C11.374 177.324 19.4752 172.515 27.7812 168.048C28.5082 167.655 29.3522 167.488 30.1836 167.877V167.869Z" fill="white"/>
<path d="M326.095 150.379C320.839 154.227 315.024 157.148 309.4 160.373C305.214 162.776 301.244 165.588 296.694 167.338C295.349 168.069 294.263 167.28 293.202 166.67C285.606 162.287 277.989 157.942 270.444 153.471C269.048 152.644 267.486 151.775 268.505 149.661C277.028 144.756 285.606 139.938 294.046 134.896C296.26 133.575 297.889 133.634 300.054 134.933C307.654 139.496 315.387 143.845 323.046 148.307C324.103 148.921 325.327 149.322 326.091 150.379H326.095Z" fill="white"/>
<path d="M164.003 335C163.961 323.649 163.919 312.297 163.874 300.945C172.685 295.827 181.497 290.717 190.3 285.591C191.223 285.056 192.41 284.726 192.347 283.297C193.475 283.539 193.362 284.467 193.362 285.265C193.375 295.543 193.341 305.821 193.387 316.099C193.396 317.666 192.894 318.656 191.491 319.433C182.278 324.539 173.379 330.196 163.999 335H164.003Z" fill="#82A300"/>
<path d="M97.016 234.096C97.0578 245.456 97.0996 256.816 97.1372 268.176C96.2305 268.264 95.5579 267.725 94.8434 267.311C86.8967 262.719 78.9877 258.048 70.9783 253.574C68.6553 252.274 67.5565 250.816 67.6066 248.021C67.7696 238.558 67.6609 229.094 67.6776 219.627C67.6776 218.808 67.8573 217.985 67.9576 217.166C77.6423 222.811 87.3313 228.451 97.016 234.096Z" fill="#CDFF09"/>
<path d="M230.836 268.184C230.79 258.408 230.744 248.631 230.706 238.859C230.698 237.208 230.844 235.541 229.933 234.041C231.379 233.949 232.519 233.118 233.706 232.429C241.339 227.979 248.964 223.513 256.577 219.03C257.604 218.424 258.983 218.144 259.129 216.594C260.404 217.045 260.078 218.161 260.082 219.059C260.107 229.078 260.053 239.097 260.132 249.116C260.149 250.9 259.522 251.894 258.01 252.742C248.927 257.848 239.889 263.033 230.836 268.189V268.184Z" fill="#82A300"/>
<path d="M30.1838 167.869C21.6021 172.816 13.0078 177.737 4.45532 182.738C3.39827 183.357 1.60168 183.482 1.9025 185.458C0.803669 185.174 0.920665 184.276 0.920665 183.465C0.920665 173.334 0.970794 163.202 0.912301 153.07C0.899767 151.19 1.50142 149.966 3.14758 149.021C11.8171 144.062 20.4448 139.036 29.0975 134.047C29.436 133.851 29.8914 133.859 30.2925 133.771C30.2549 145.136 30.2172 156.504 30.1796 167.869H30.1838Z" fill="#CDFF09"/>
<path d="M268.505 149.656C268.024 151.67 269.854 151.816 270.903 152.431C279.476 157.44 288.091 162.378 296.694 167.338C296.744 178.677 296.79 190.016 296.84 201.356C293.381 200.215 290.465 198.051 287.344 196.279C281.54 192.987 275.812 189.565 269.975 186.34C268.175 185.345 267.414 184.188 267.431 182.091C267.519 172.08 267.464 162.065 267.46 152.05C267.46 151.102 267.214 150.045 268.501 149.656H268.505Z" fill="#CDFF09"/>
<path d="M193.091 51.0168C183.356 45.4015 173.625 39.7862 163.89 34.1709C163.895 24.3775 163.878 14.5799 163.924 4.78654C163.932 3.34093 163.41 1.69481 164.943 0.591797C173.734 5.64308 182.516 10.7027 191.319 15.7331C192.448 16.3765 193.404 16.9781 193.379 18.524C193.187 29.3536 193.726 40.1915 193.091 51.0168Z" fill="#82A300"/>
<path d="M97.1919 66.9297C97.1835 77.0907 97.0958 87.2476 97.2295 97.4045C97.2629 99.9322 96.5359 101.399 94.2798 102.665C85.4265 107.624 76.6943 112.796 67.9162 117.89C67.348 111.79 67.7699 105.673 67.678 99.5646C67.6112 95.115 67.6864 90.6653 67.6613 86.2157C67.653 84.7576 67.8159 83.4498 69.2657 82.656C78.6413 77.5295 87.5447 71.5757 97.1877 66.9297H97.1919Z" fill="#CDFF09"/>
<path d="M451.826 279.049L451.68 279.195C430.439 279.195 412.715 271.578 398.359 256.197C384.004 240.816 376.826 221.773 376.826 199.068C376.826 176.07 384.004 156.881 398.359 141.646C412.715 126.412 430.586 118.795 451.826 118.795C472.627 118.795 488.887 126.266 500.605 141.354V123.043H540.596V274.801H500.605V256.197C488.887 271.432 472.627 279.049 451.826 279.049ZM458.564 243.746V243.453C470.723 243.453 480.977 239.205 489.326 230.709C497.676 222.213 501.777 211.52 501.777 198.482C501.777 185.738 497.676 175.191 489.326 166.842C480.977 158.492 470.723 154.244 458.564 154.244C446.113 154.244 435.859 158.346 427.803 166.695C419.746 175.045 415.791 185.738 415.791 198.775C415.791 211.959 419.746 222.799 427.803 231.148C435.859 239.498 446.113 243.746 458.564 243.746ZM587.482 101.656V101.949C580.891 101.949 575.324 99.752 570.783 95.2109C566.242 90.6699 563.898 85.1035 563.898 78.5117C563.898 72.0664 566.242 66.6465 570.783 62.252C575.324 57.8574 580.891 55.6602 587.482 55.6602C594.074 55.6602 599.641 57.8574 604.182 62.252C608.723 66.6465 611.066 72.0664 611.066 78.5117C611.066 85.1035 608.723 90.6699 604.182 95.0645C599.641 99.459 594.074 101.656 587.482 101.656ZM566.975 275.094V123.336H606.818V275.094H566.975ZM803.424 123.043L842.975 123.336V275.094H803.277V255.904C791.412 271.578 775.152 279.342 754.498 279.342C734.869 279.342 719.928 273.336 709.82 261.324C699.713 249.312 694.586 232.76 694.586 211.812V123.336H734.137V204.342C734.137 216.207 736.92 225.436 742.486 232.174C748.053 238.912 756.109 242.281 766.656 242.281C777.936 242.281 786.871 238.326 793.463 230.27C800.055 222.213 803.424 211.373 803.424 197.75V123.043ZM958.562 118.795V118.941C978.045 118.941 992.84 124.947 1003.09 136.959C1013.35 148.971 1018.47 165.377 1018.47 186.178V274.947H978.777V193.648C978.777 181.783 975.994 172.555 970.574 165.816C965.154 159.078 957.098 155.709 946.404 155.709C935.418 155.709 926.629 159.664 919.891 167.721C913.152 175.777 909.783 186.471 909.783 199.801V274.801H870.232V123.043H909.783V142.232C921.941 126.559 938.201 118.795 958.562 118.795ZM1063.9 101.656V101.949C1057.3 101.949 1051.74 99.752 1047.2 95.2109C1042.66 90.6699 1040.31 85.1035 1040.31 78.5117C1040.31 72.0664 1042.66 66.6465 1047.2 62.252C1051.74 57.8574 1057.3 55.6602 1063.9 55.6602C1070.49 55.6602 1076.05 57.8574 1080.6 62.252C1085.14 66.6465 1087.48 72.0664 1087.48 78.5117C1087.48 85.1035 1085.14 90.6699 1080.6 95.0645C1076.05 99.459 1070.49 101.656 1063.9 101.656ZM1043.39 275.094V123.336H1083.23V275.094H1043.39ZM1219.47 123.043H1262.69L1199.99 274.801H1155.31L1092.62 123.043H1136.12L1177.87 231.002L1219.47 123.043ZM1339.46 279.049L1339.02 279.195C1314.55 279.195 1294.78 271.871 1279.54 257.223C1264.31 242.574 1256.69 223.238 1256.69 199.215C1256.69 176.217 1264.02 157.027 1278.67 141.793C1293.31 126.559 1312.5 118.941 1336.09 118.941C1360.26 118.941 1379.45 126.266 1393.51 141.061C1407.57 155.855 1414.6 174.459 1414.6 196.871C1414.6 203.023 1414.31 207.711 1413.72 210.934H1295.8C1297.12 221.334 1301.52 229.684 1308.99 235.982C1316.46 242.281 1326.71 245.357 1339.9 245.357C1357.47 245.357 1369.78 238.619 1376.81 225.289L1412.55 235.836C1407.57 247.262 1398.78 257.369 1386.04 266.012C1373.29 274.654 1357.77 279.049 1339.46 279.049ZM1295.51 186.178H1375.79C1374.76 176.656 1370.66 168.6 1363.48 162.154C1356.3 155.709 1347.07 152.486 1335.65 152.486C1324.66 152.486 1315.58 155.855 1308.26 162.447C1300.93 169.039 1296.68 176.949 1295.51 186.178ZM1472.18 145.455L1472.04 145.602C1482 125.973 1498.7 117.77 1522.13 120.992V158.199C1505.58 155.562 1493.13 158.346 1484.78 166.549C1476.43 174.752 1472.18 188.814 1472.18 208.736V274.801H1432.63V123.043H1472.18V145.455ZM1594.66 279.049L1594.22 278.902C1576.2 278.902 1560.38 274.215 1546.76 264.986C1533.13 255.758 1524.34 244.771 1520.39 232.027L1556.13 221.627C1558.77 229.098 1563.6 235.104 1570.63 239.791C1577.66 244.479 1586.01 246.822 1595.83 246.822C1603.3 246.822 1609.3 245.357 1613.99 242.281C1618.68 239.205 1621.02 235.543 1621.02 231.148C1621.02 224.557 1615.46 219.576 1604.18 216.207L1565.51 204.781C1540.46 197.604 1528.01 184.127 1528.01 164.352C1528.01 151.754 1534.01 141.061 1545.88 132.125C1557.74 123.189 1572.1 118.795 1588.94 118.795C1604.91 118.795 1618.97 122.311 1630.98 129.342C1643 136.373 1651.49 145.602 1656.33 157.174L1621.17 167.428C1614.58 155.562 1603.74 149.703 1588.8 149.703C1582.79 149.703 1577.66 151.021 1573.42 153.805C1569.17 156.588 1567.12 159.811 1567.12 163.473C1567.12 169.039 1571.37 172.994 1579.71 175.484L1617.51 186.324C1631.13 190.279 1641.68 195.406 1649.15 201.559C1656.62 207.711 1660.28 216.939 1660.28 229.391C1660.28 243.746 1654.13 255.611 1641.82 264.986C1629.52 274.361 1613.85 279.049 1594.66 279.049ZM1749.94 279.049L1749.5 279.195C1725.04 279.195 1705.26 271.871 1690.03 257.223C1674.79 242.574 1667.18 223.238 1667.18 199.215C1667.18 176.217 1674.5 157.027 1689.15 141.793C1703.8 126.559 1722.99 118.941 1746.57 118.941C1770.74 118.941 1789.93 126.266 1803.99 141.061C1818.06 155.855 1825.09 174.459 1825.09 196.871C1825.09 203.023 1824.79 207.711 1824.21 210.934H1706.29C1707.61 221.334 1712 229.684 1719.47 235.982C1726.94 242.281 1737.2 245.357 1750.38 245.357C1767.96 245.357 1780.26 238.619 1787.29 225.289L1823.04 235.836C1818.06 247.262 1809.27 257.369 1796.52 266.012C1783.78 274.654 1768.25 279.049 1749.94 279.049ZM1706 186.178H1786.27C1785.24 176.656 1781.14 168.6 1773.96 162.154C1766.79 155.709 1757.56 152.486 1746.13 152.486C1735.15 152.486 1726.06 155.855 1718.74 162.447C1711.42 169.039 1707.17 176.949 1706 186.178Z" fill="white"/>
</svg>
