<svg width="21" height="21" viewBox="0 0 21 21" fill="none" xmlns="http://www.w3.org/2000/svg">
<g id="mail">
<mask id="mask0_4800_1488" style="mask-type:alpha" maskUnits="userSpaceOnUse" x="0" y="0" width="21" height="21">
<rect id="Bounding box" x="0.806641" y="0.774902" width="20" height="20" fill="#D9D9D9"/>
</mask>
<g mask="url(#mask0_4800_1488)">
<path id="mail_2" d="M4.39704 17.0249C3.9761 17.0249 3.61979 16.879 3.32813 16.5874C3.03646 16.2957 2.89062 15.9394 2.89062 15.5184V6.03132C2.89062 5.61038 3.03646 5.25407 3.32813 4.9624C3.61979 4.67074 3.9761 4.5249 4.39704 4.5249H17.2175C17.6384 4.5249 17.9948 4.67074 18.2864 4.9624C18.5781 5.25407 18.7239 5.61038 18.7239 6.03132V15.5184C18.7239 15.9394 18.5781 16.2957 18.2864 16.5874C17.9948 16.879 17.6384 17.0249 17.2175 17.0249H4.39704ZM10.8073 11.2396L4.1406 6.97678V15.5184C4.1406 15.5932 4.16465 15.6547 4.21273 15.7028C4.26081 15.7508 4.32225 15.7749 4.39704 15.7749H17.2175C17.2923 15.7749 17.3537 15.7508 17.4018 15.7028C17.4499 15.6547 17.4739 15.5932 17.4739 15.5184V6.97678L10.8073 11.2396ZM10.8073 9.94155L17.3457 5.77488H4.26881L10.8073 9.94155ZM4.1406 6.97678V5.77488V15.5184C4.1406 15.5932 4.16465 15.6547 4.21273 15.7028C4.26081 15.7508 4.32225 15.7749 4.39704 15.7749H4.1406V6.97678Z" fill="#09090F"/>
</g>
</g>
</svg>
