<svg width="27" height="27" viewBox="0 0 27 27" fill="none" xmlns="http://www.w3.org/2000/svg">
<g id="Minus" clip-path="url(#clip0_4646_142)">
<g id="Group">
<path id="Vector" d="M19.0577 12.3437C11.9221 12.3437 15.1032 12.3437 7.17984 12.3437C6.52295 12.3437 5.97559 12.891 5.97559 13.5479C5.97559 13.8763 6.11247 14.1774 6.33143 14.3963C6.5504 14.6153 6.85148 14.7522 7.1798 14.7522C14.0524 14.7522 11.4647 14.7521 19.0576 14.7521C19.7145 14.7521 20.2619 14.2048 20.2619 13.5479C20.2619 12.8909 19.7419 12.3437 19.0577 12.3437Z" fill="#18181D"/>
<path id="Vector_2" d="M13.1191 0.547791C5.94861 0.547791 0.119141 6.37726 0.119141 13.5478C0.119141 20.7183 5.94861 26.5478 13.1191 26.5478C20.2897 26.5478 26.1191 20.7183 26.1191 13.5478C26.1191 6.37726 20.2897 0.547791 13.1191 0.547791ZM13.1191 24.1394C7.2623 24.1394 2.52756 19.4047 2.52756 13.5478C2.52756 7.6909 7.26225 2.95621 13.1191 2.95621C18.976 2.95621 23.7107 7.6909 23.7107 13.5478C23.7107 19.4047 18.976 24.1394 13.1191 24.1394Z" fill="#18181D"/>
</g>
</g>
<defs>
<clipPath id="clip0_4646_142">
<rect width="26" height="26" fill="white" transform="translate(0.119141 0.547791)"/>
</clipPath>
</defs>
</svg>
