<svg width="21" height="21" viewBox="0 0 21 21" fill="none" xmlns="http://www.w3.org/2000/svg">
<path d="M2.833 2H7.323L8.77 5.618L6.445 7.168C6.30808 7.25935 6.19583 7.38308 6.1182 7.52822C6.04057 7.67335 5.99997 7.83541 6 8C6.003 8.094 6 8.001 6 8.001V8.022C6.00059 8.06672 6.00259 8.11141 6.006 8.156C6.012 8.238 6.022 8.349 6.041 8.486C6.08 8.756 6.155 9.128 6.301 9.566C6.595 10.446 7.171 11.585 8.293 12.707C9.415 13.829 10.554 14.405 11.433 14.699C11.872 14.845 12.243 14.919 12.515 14.959C12.6685 14.9804 12.8231 14.9938 12.978 14.999L12.991 15H12.999C12.999 15 13.111 14.994 13 15C13.1857 14.9999 13.3676 14.9481 13.5255 14.8504C13.6834 14.7528 13.811 14.6131 13.894 14.447L14.564 13.107L19 13.847V18.167C16.889 18.472 11.187 18.773 6.707 14.293C2.227 9.813 2.527 4.11 2.833 2ZM8.073 8.486L9.88 7.282C10.2617 7.02737 10.5443 6.64922 10.6803 6.21096C10.8163 5.77271 10.7975 5.30102 10.627 4.875L9.18 1.257C9.03151 0.885905 8.77523 0.567815 8.44424 0.343762C8.11324 0.119709 7.7227 -2.67934e-05 7.323 4.49722e-09H2.781C1.872 4.49722e-09 1.017 0.631 0.867997 1.617C0.527997 3.859 0.0669971 10.481 5.293 15.707C10.519 20.933 17.141 20.471 19.383 20.132C20.369 19.982 21 19.128 21 18.219V13.847C21.0001 13.3736 20.8322 12.9155 20.5262 12.5542C20.2202 12.1929 19.796 11.9519 19.329 11.874L14.893 11.135C14.4711 11.0646 14.0377 11.1313 13.6565 11.3253C13.2753 11.5193 12.9663 11.8304 12.775 12.213L12.429 12.906C12.3066 12.8759 12.1855 12.8408 12.066 12.801C11.446 12.595 10.585 12.171 9.707 11.293C8.829 10.415 8.405 9.554 8.199 8.933C8.14981 8.78621 8.10809 8.63702 8.074 8.486H8.073Z" fill="#BA68C8"/>
</svg>
