<svg width="21" height="21" viewBox="0 0 21 21" fill="none" xmlns="http://www.w3.org/2000/svg">
<g id="phone_in_talk">
<mask id="mask0_4802_3670" style="mask-type:alpha" maskUnits="userSpaceOnUse" x="0" y="0" width="21" height="21">
<rect id="Bounding box" x="0.806641" y="0.774902" width="20" height="20" fill="#D9D9D9"/>
</mask>
<g mask="url(#mask0_4802_3670)">
<path id="phone_in_talk_2" d="M16.6557 10.6547C16.6077 9.05638 16.0257 7.69928 14.9097 6.58336C13.7938 5.46744 12.4367 4.88545 10.8384 4.83736V3.5874C11.8106 3.60876 12.7209 3.80801 13.5692 4.18515C14.4175 4.56229 15.1584 5.06763 15.7919 5.70117C16.4255 6.33472 16.9308 7.07563 17.3079 7.92392C17.6851 8.7722 17.8843 9.68245 17.9057 10.6547H16.6557ZM13.3224 10.6547C13.2743 9.98694 13.0152 9.41669 12.5452 8.94394C12.0751 8.47118 11.5062 8.21343 10.8384 8.1707V6.92074C11.8523 6.96347 12.7161 7.34301 13.4297 8.05934C14.1434 8.77569 14.5243 9.6408 14.5724 10.6547H13.3224ZM16.9906 17.9624C15.4201 17.9624 13.8424 17.5972 12.2575 16.867C10.6726 16.1368 9.21503 15.1066 7.88491 13.7765C6.56013 12.4463 5.53262 10.9902 4.80239 9.4079C4.07215 7.82564 3.70703 6.24926 3.70703 4.67876C3.70703 4.42876 3.79036 4.21909 3.95703 4.04976C4.1237 3.88041 4.33203 3.79574 4.58203 3.79574H7.29995C7.51042 3.79574 7.69605 3.86438 7.85684 4.00167C8.01763 4.13897 8.11993 4.30857 8.16372 4.51049L8.64128 6.96238C8.67441 7.18995 8.66746 7.38547 8.62045 7.54892C8.57345 7.71238 8.48905 7.84967 8.36724 7.96078L6.44257 9.83417C6.75241 10.4015 7.10631 10.9381 7.50428 11.4439C7.90225 11.9498 8.33307 12.433 8.79674 12.8935C9.25402 13.3507 9.74014 13.7754 10.2551 14.1675C10.7701 14.5596 11.3261 14.9245 11.9234 15.2621L13.7936 13.3759C13.9239 13.2402 14.0818 13.1451 14.2671 13.0906C14.4525 13.0361 14.6451 13.0228 14.8448 13.0505L17.1589 13.5217C17.3694 13.5773 17.5411 13.6846 17.6741 13.8438C17.8071 14.003 17.8737 14.1836 17.8737 14.3855V17.0874C17.8737 17.3374 17.789 17.5457 17.6196 17.7124C17.4503 17.879 17.2406 17.9624 16.9906 17.9624ZM5.85124 8.65151L7.33843 7.22842C7.36514 7.20705 7.3825 7.17767 7.39051 7.14028C7.39852 7.10288 7.39719 7.06815 7.38651 7.03611L7.02432 5.17392C7.01364 5.13119 6.99495 5.09914 6.96824 5.07778C6.94153 5.0564 6.90681 5.04572 6.86407 5.04572H5.08201C5.04997 5.04572 5.02326 5.0564 5.00189 5.07778C4.98051 5.09914 4.96982 5.12585 4.96982 5.1579C5.01256 5.72735 5.10577 6.30588 5.24947 6.89349C5.39318 7.4811 5.59377 8.0671 5.85124 8.65151ZM13.1012 15.8534C13.6536 16.1109 14.2297 16.3077 14.8296 16.444C15.4295 16.5802 15.9901 16.6611 16.5115 16.6867C16.5435 16.6867 16.5703 16.6761 16.5916 16.6547C16.613 16.6333 16.6237 16.6066 16.6237 16.5745V14.8214C16.6237 14.7786 16.613 14.7439 16.5916 14.7172C16.5703 14.6905 16.5382 14.6718 16.4955 14.6611L14.7455 14.3053C14.7134 14.2946 14.6854 14.2933 14.6613 14.3013C14.6373 14.3093 14.6119 14.3267 14.5852 14.3534L13.1012 15.8534Z" fill="#09090F"/>
</g>
</g>
</svg>
