<svg width="27" height="27" viewBox="0 0 27 27" fill="none" xmlns="http://www.w3.org/2000/svg">
<g id="Plus" clip-path="url(#clip0_4646_153)">
<g id="Group">
<path id="Vector" d="M19.0578 12.3433H14.3232V7.60862C14.3232 6.95173 13.7758 6.40436 13.1189 6.40436C12.462 6.40436 11.9146 6.95168 11.9146 7.60862V12.3433H7.17997C6.52308 12.3433 5.97571 12.8906 5.97571 13.5476C5.97571 13.8759 6.11259 14.177 6.33156 14.3959C6.55053 14.6149 6.8516 14.7518 7.17993 14.7518H11.9146V19.4865C11.9146 19.8148 12.0515 20.1159 12.2705 20.3348C12.4894 20.5538 12.7905 20.6907 13.1188 20.6907C13.7757 20.6907 14.3231 20.1434 14.3231 19.4864V14.7517H19.0578C19.7147 14.7517 20.262 14.2044 20.262 13.5475C20.262 12.8905 19.742 12.3432 19.0578 12.3432L19.0578 12.3433Z" fill="#A0A4AD"/>
<path id="Vector_2" d="M13.1191 0.547791C5.94861 0.547791 0.119141 6.37726 0.119141 13.5478C0.119141 20.7183 5.94861 26.5478 13.1191 26.5478C20.2897 26.5478 26.1191 20.7183 26.1191 13.5478C26.1191 6.37726 20.2897 0.547791 13.1191 0.547791ZM13.1191 24.1394C7.2623 24.1394 2.52756 19.4047 2.52756 13.5478C2.52756 7.6909 7.26225 2.95621 13.1191 2.95621C18.976 2.95621 23.7107 7.6909 23.7107 13.5478C23.7107 19.4047 18.976 24.1394 13.1191 24.1394Z" fill="#A0A4AD"/>
</g>
</g>
<defs>
<clipPath id="clip0_4646_153">
<rect width="26" height="26" fill="white" transform="translate(0.119141 0.547791)"/>
</clipPath>
</defs>
</svg>
