<svg width="21" height="20" viewBox="0 0 21 20" fill="none" xmlns="http://www.w3.org/2000/svg">
<g id="Group">
<path id="Vector" d="M10.6119 0.00830078C5.09772 0.00830078 0.611938 4.49408 0.611938 10.0083C0.611938 15.5225 5.09772 20.0083 10.6119 20.0083C16.1262 20.0083 20.6119 15.5225 20.6119 10.0083C20.6119 4.49408 16.1262 0.00830078 10.6119 0.00830078ZM15.6803 7.88916L10.2636 13.3057C10.1011 13.4682 9.88776 13.55 9.67444 13.55C9.46112 13.55 9.2478 13.4682 9.0853 13.3057L6.37702 10.5974C6.05108 10.2717 6.05108 9.74494 6.37702 9.41916C6.7028 9.09322 7.22936 9.09322 7.5553 9.41916L9.67444 11.5383L14.502 6.71088C14.8278 6.38494 15.3544 6.38494 15.6803 6.71088C16.0061 7.03666 16.0061 7.56322 15.6803 7.88916Z" fill="#CDFF09"/>
</g>
</svg>
