<svg xmlns="http://www.w3.org/2000/svg" width="25" height="24" viewBox="0 0 25 24" fill="none">
  <g clip-path="url(#clip0_5142_4113)">
    <path d="M12.2359 2.99854H12.3694C13.6024 3.00304 19.8499 3.04804 21.5344 3.50104C22.0437 3.63929 22.5077 3.90877 22.8802 4.28255C23.2526 4.65633 23.5205 5.12131 23.6569 5.63104C23.8084 6.20104 23.9149 6.95554 23.9869 7.73404L24.0019 7.89004L24.0349 8.28004L24.0469 8.43604C24.1444 9.80704 24.1564 11.091 24.1579 11.3715V11.484C24.1564 11.775 24.1429 13.146 24.0349 14.574L24.0229 14.7315L24.0094 14.8875C23.9344 15.7455 23.8234 16.5975 23.6569 17.2245C23.5209 17.7345 23.2532 18.1997 22.8807 18.5735C22.5081 18.9474 22.0439 19.2167 21.5344 19.3545C19.7944 19.8225 13.1809 19.8555 12.2644 19.857H12.0514C11.5879 19.857 9.67092 19.848 7.66092 19.779L7.40592 19.77L7.27542 19.764L7.01892 19.7535L6.76242 19.743C5.09742 19.6695 3.51192 19.551 2.78142 19.353C2.27216 19.2153 1.80802 18.9462 1.43551 18.5726C1.063 18.1991 0.795194 17.7342 0.658924 17.2245C0.492424 16.599 0.381424 15.7455 0.306424 14.8875L0.294424 14.73L0.282424 14.574C0.208395 13.5576 0.167374 12.5391 0.159424 11.52L0.159424 11.3355C0.162424 11.013 0.174424 9.89854 0.255424 8.66854L0.265924 8.51404L0.270424 8.43604L0.282424 8.28004L0.315424 7.89004L0.330424 7.73404C0.402424 6.95554 0.508924 6.19954 0.660424 5.63104C0.796464 5.12111 1.06417 4.6559 1.43669 4.28206C1.80922 3.90822 2.27348 3.63887 2.78292 3.50104C3.51342 3.30604 5.09892 3.18604 6.76392 3.11104L7.01892 3.10054L7.27692 3.09154L7.40592 3.08704L7.66242 3.07654C9.08999 3.0306 10.5181 3.00509 11.9464 3.00004H12.2359V2.99854ZM9.75942 7.81354V15.0405L15.9949 11.4285L9.75942 7.81354Z" 
    fill="white"/>
  </g>
  <defs>
    <clipPath id="clip0_5142_4113">
      <rect width="24" height="24" fill="white" transform="translate(0.159424)"/>
    </clipPath>
  </defs>
</svg>